<?xml version="1.0" encoding="UTF-8"?>
<svg id="Layer_2" data-name="Layer 2" xmlns="http://www.w3.org/2000/svg" viewBox="0 0 96.21 96.21">
  <defs>
    <style>
      .cls-1, .cls-2 {
        fill: #0070f2;
      }

      .cls-2 {
        opacity: 0;
      }
    </style>
  </defs>
  <g id="Icons_16px" data-name="Icons 16px">
    <g id="data-leak-1">
      <rect class="cls-2" width="96.21" height="96.21"/>
      <g>
        <path class="cls-1" d="M22.85,36.08c-2.65,0-4.81,2.16-4.81,4.81s2.16,4.81,4.81,4.81h26.46c2.65,0,4.81-2.16,4.81-4.81s-2.16-4.81-4.81-4.81h-26.46Z"/>
        <path class="cls-1" d="M57.12,21.05c0-3.01-2.41-5.41-5.41-5.41s-5.41,2.41-5.41,5.41,2.41,5.41,5.41,5.41,5.41-2.41,5.41-5.41Z"/>
        <path class="cls-1" d="M36.08,74.56h-19.24c-3.97,0-7.22-3.25-7.22-7.22V16.84c0-3.97,3.25-7.22,7.22-7.22h38.48c3.97,0,7.22,3.25,7.22,7.22v24.05c0,2.65,2.16,4.81,4.81,4.81s4.81-2.16,4.81-4.81v-24.05c0-9.26-7.58-16.84-16.84-16.84H16.84C7.58,0,0,7.58,0,16.84v50.51c0,9.26,7.58,16.84,16.84,16.84h19.24c2.65,0,4.81-2.16,4.81-4.81s-2.16-4.81-4.81-4.81Z"/>
        <path class="cls-1" d="M37.28,55.32h-14.43c-2.65,0-4.81,2.16-4.81,4.81s2.16,4.81,4.81,4.81h14.43c2.65,0,4.81-2.16,4.81-4.81s-2.16-4.81-4.81-4.81Z"/>
        <path class="cls-1" d="M82.86,48.1c-7.34,0-13.35,5.95-13.35,13.35v4.69h-10.58c-5.95,0-10.82,4.87-10.82,10.82v8.42c0,5.95,4.87,10.82,10.82,10.82h14.43v-.06c5.95,0,10.82-4.87,10.82-10.82v-8.42c0-3.85-1.98-7.22-5.05-9.14v-6.31c0-2.04,1.68-3.73,3.73-3.73s3.73,1.68,3.73,3.73c0,2.65,2.16,4.81,4.81,4.81s4.81-2.16,4.81-4.81v-.3c-.18-7.22-6.01-13.05-13.35-13.05ZM74.56,85.39c0,.66-.54,1.2-1.2,1.2h-14.43c-.66,0-1.2-.54-1.2-1.2v-8.42c0-.66.54-1.2,1.2-1.2h14.43c.66,0,1.2.54,1.2,1.2v8.42Z"/>
      </g>
    </g>
  </g>
</svg>