<?xml version="1.0" encoding="UTF-8"?>
<svg id="Layer_2" data-name="Layer 2" xmlns="http://www.w3.org/2000/svg" viewBox="0 0 96.21 96.21">
  <defs>
    <style>
      .cls-1, .cls-2 {
        fill: #0070f2;
      }

      .cls-2 {
        opacity: 0;
      }
    </style>
  </defs>
  <g id="Icons_16px" data-name="Icons 16px">
    <g id="computer-security">
      <rect class="cls-2" width="96.21" height="96.21"/>
      <g>
        <path class="cls-1" d="M49.31,69.12c2.65,0,4.81-2.16,4.81-4.81s-2.16-4.81-4.81-4.81H10.82c-.66,0-1.2-.54-1.2-1.2V19.81c0-.72.48-1.2,1.2-1.2h62.54c.66,0,1.2.54,1.2,1.2v7.34c0,2.65,2.16,4.81,4.81,4.81s4.81-2.16,4.81-4.81v-7.34c0-5.95-4.87-10.82-10.82-10.82H10.82C4.75,8.99,0,13.74,0,19.81v38.48c0,5.95,4.87,10.82,10.82,10.82h25.26v8.42h-7.22c-2.65,0-4.81,2.16-4.81,4.81s2.16,4.81,4.81,4.81h20.44c2.65,0,4.81-2.16,4.81-4.81s-2.16-4.81-4.81-4.81h-3.61v-8.42h3.61Z"/>
        <path class="cls-1" d="M91.52,59.08v-6.61c0-7.34-6.01-13.35-13.35-13.35s-13.35,5.95-13.35,13.35v6.61c-2.83,1.92-4.69,5.23-4.69,8.9v8.42c0,5.95,4.87,10.82,10.82,10.82h14.43c5.95,0,10.82-4.87,10.82-10.82v-8.42c0-3.67-1.86-6.92-4.69-8.9ZM74.44,52.46c0-2.04,1.68-3.73,3.73-3.73s3.73,1.68,3.73,3.73v4.69h-7.46v-4.69ZM86.59,76.4c0,.66-.54,1.2-1.2,1.2h-14.43c-.66,0-1.2-.54-1.2-1.2v-8.42c0-.66.54-1.2,1.2-1.2h14.43c.66,0,1.2.54,1.2,1.2v8.42Z"/>
        <circle class="cls-1" cx="24.05" cy="38.99" r="4.81"/>
        <path class="cls-1" d="M34.88,38.99c0,2.66,2.15,4.81,4.81,4.81s4.81-2.15,4.81-4.81-2.15-4.81-4.81-4.81-4.81,2.15-4.81,4.81Z"/>
        <circle class="cls-1" cx="55.32" cy="38.99" r="4.81"/>
      </g>
    </g>
  </g>
</svg>