<?xml version="1.0" encoding="UTF-8"?>
<svg id="Layer_2" data-name="Layer 2" xmlns="http://www.w3.org/2000/svg" viewBox="0 0 96.21 96.21">
  <defs>
    <style>
      .cls-1, .cls-2 {
        fill: #0070f2;
      }

      .cls-2 {
        opacity: 0;
      }
    </style>
  </defs>
  <g id="Icons_16px" data-name="Icons 16px">
    <g id="cloud-security">
      <rect class="cls-2" width="96.21" height="96.21"/>
      <g>
        <path class="cls-1" d="M64.94,54.12h14.43c5.95,0,10.82-4.87,10.82-10.82v-8.42c0-3.67-1.86-6.92-4.69-8.9v-6.61c0-7.34-6.01-13.35-13.35-13.35s-13.35,5.95-13.35,13.35v6.61c-2.83,1.93-4.69,5.23-4.69,8.9v8.42c0,5.95,4.87,10.82,10.82,10.82ZM68.43,19.36c0-2.05,1.69-3.73,3.73-3.73s3.73,1.68,3.73,3.73v4.69h-7.46v-4.69ZM63.74,34.88c0-.66.54-1.2,1.2-1.2h14.43c.66,0,1.2.54,1.2,1.2v8.42c0,.66-.54,1.2-1.2,1.2h-14.43c-.66,0-1.2-.54-1.2-1.2v-8.42Z"/>
        <path class="cls-1" d="M91.4,60.37c-2.65,0-4.81,2.16-4.81,4.81,0,8.66-6.49,15.39-14.85,15.39H20.56c-6.01,0-10.94-5.11-10.94-11.36s4.93-11.37,10.94-11.37h3.91c2.65,0,4.81-2.16,4.81-4.81,0-9.68,6.25-17.86,14.85-19.48,2.65-.48,4.33-3.01,3.85-5.59-.48-2.65-3.01-4.33-5.59-3.85-11.67,2.22-20.5,12.03-22.37,24.17-11.06.24-20.02,9.32-20.02,20.93s9.26,20.98,20.56,20.98h51.17c13.71,0,24.47-11,24.47-25.01,0-2.65-2.16-4.81-4.81-4.81Z"/>
      </g>
    </g>
  </g>
</svg>