<?xml version="1.0" encoding="UTF-8"?>
<svg id="Layer_2" data-name="Layer 2" xmlns="http://www.w3.org/2000/svg" viewBox="0 0 96.21 96.21">
  <defs>
    <style>
      .cls-1, .cls-2 {
        fill: #0070f2;
      }

      .cls-2 {
        opacity: 0;
      }
    </style>
  </defs>
  <g id="Icons_16px" data-name="Icons 16px">
    <g id="cyber-crime">
      <rect class="cls-2" width="96.21" height="96.21"/>
      <g>
        <path class="cls-1" d="M33.8,74.53H12.12v-1.2c0-13.97,11.32-25.29,25.29-25.29h2.41c5,0,10.36,1.57,14.21,4.03l1.81,1.2c2.23,1.51,5.18.9,6.68-1.32,1.51-2.23.9-5.18-1.32-6.68l-1.87-1.26c-1.45-.9-4.7-2.53-4.58-2.47.78-.66,1.14-1.14,1.87-1.99,2.82-3.33,4.62-7.37,5.32-11.65h.94c2.78-.03,5.03-2.17,5.03-4.79s-2.28-4.79-5.09-4.79h-6.57l-.38-8.16c0-5.6-4.55-10.15-10.15-10.15-.49,0-4.18.07-7.77,1.98-3.21-1.76-6.21-1.98-7.65-1.98-5.56,0-10.09,4.53-10.08,9.93l-.39,8.38h-6.33c-2.81,0-5.09,2.15-5.09,4.79s2.28,4.79,5.09,4.79h1.09c.93,5.53,3.68,10.55,7.64,14.12-11.74,5.6-19.75,17.46-19.75,31.38v6.02c0,2.65,2.17,4.82,4.82,4.82h26.5c2.65-.06,4.82-2.23,4.82-4.88s-2.17-4.82-4.82-4.82ZM29.86,10.09c0-.31.26-.57.75-.57.02,0,2.25.04,4.32,1.89.96.86,2.18,1.27,3.49,1.19,1.26-.09,2.42-.65,3.24-1.57,1.1-1.2,3.46-1.51,4.18-1.51.33,0,.57.27.58.79l.37,7.94h-17.31l.38-8.16ZM24.41,27.89h27.77c-.56,1.98-1.48,3.84-2.84,5.45-2.77,3.25-6.81,5.12-11.08,5.12-6.6,0-12.14-4.5-13.85-10.57h0Z"/>
        <path class="cls-1" d="M89.99,86.8v-19.37c0-5.25-4.49-9.69-9.82-9.69h-28.18c-2.64,0-5.23,1.09-7.11,3.01-1.8,1.84-2.76,4.25-2.71,6.68v19.35c-2.18.46-3.86,2.31-3.86,4.62,0,2.66,2.16,4.82,4.82,4.82h45.77c2.66,0,4.82-2.16,4.82-4.82,0-2.27-1.61-4.09-3.73-4.6ZM51.99,67.36l28.36.06v18.19h-28.51l.14-18.25Z"/>
      </g>
    </g>
  </g>
</svg>