<?xml version="1.0" encoding="UTF-8"?>
<svg id="Layer_2" data-name="Layer 2" xmlns="http://www.w3.org/2000/svg" viewBox="0 0 96.21 96.21">
  <defs>
    <style>
      .cls-1, .cls-2 {
        fill: #0070f2;
      }

      .cls-2 {
        opacity: 0;
      }
    </style>
  </defs>
  <g id="Icons_16px" data-name="Icons 16px">
    <g id="security-verification">
      <rect class="cls-2" width="96.21" height="96.21"/>
      <g>
        <path class="cls-1" d="M21.66,39.03c0,2.65,2.16,4.81,4.81,4.81s4.81-2.16,4.81-4.81-2.16-4.81-4.81-4.81-4.81,2.16-4.81,4.81Z"/>
        <path class="cls-1" d="M37.3,39.03c0,2.65,2.16,4.81,4.81,4.81s4.81-2.16,4.81-4.81-2.16-4.81-4.81-4.81-4.81,2.16-4.81,4.81Z"/>
        <path class="cls-1" d="M62.55,39.03c0-2.65-2.16-4.81-4.81-4.81s-4.81,2.16-4.81,4.81,2.16,4.81,4.81,4.81,4.81-2.16,4.81-4.81Z"/>
        <path class="cls-1" d="M94.54,54.42c-2.04-1.74-5.05-1.5-6.79.48l-14.07,16.36-5.17-5.65c-1.8-1.98-4.81-2.1-6.79-.3-1.98,1.8-2.1,4.81-.3,6.79l8.84,9.62c.9,1.02,2.22,1.56,3.55,1.56v.06h.06c1.32-.06,2.65-.66,3.55-1.68l17.62-20.44c1.74-2.04,1.5-5.05-.48-6.79Z"/>
        <path class="cls-1" d="M49.32,69.15c2.65,0,4.81-2.16,4.81-4.81s-2.16-4.81-4.81-4.81H10.84c-.66,0-1.2-.54-1.2-1.2V19.84c0-.72.48-1.2,1.2-1.2h62.54c.66,0,1.2.54,1.2,1.2v19.36c0,2.65,2.16,4.81,4.81,4.81s4.81-2.16,4.81-4.81v-19.36c0-5.95-4.87-10.82-10.82-10.82H10.84C4.77,9.02.02,13.77.02,19.84v38.48c0,5.95,4.87,10.82,10.82,10.82h26.46v8.42h-5.41c-2.65,0-4.81,2.16-4.81,4.81s2.16,4.81,4.81,4.81h17.44c2.65,0,4.81-2.16,4.81-4.81s-2.16-4.81-4.81-4.81h-2.41v-8.42h2.41Z"/>
      </g>
    </g>
  </g>
</svg>