<?xml version="1.0" encoding="UTF-8"?>
<svg id="Layer_2" data-name="Layer 2" xmlns="http://www.w3.org/2000/svg" viewBox="0 0 96.22 96.21">
  <defs>
    <style>
      .cls-1, .cls-2, .cls-3 {
        fill: #0070f2;
      }

      .cls-2 {
        fill-rule: evenodd;
      }

      .cls-3 {
        opacity: 0;
      }
    </style>
  </defs>
  <g id="Icons_16px" data-name="Icons 16px">
    <g id="online-privacy">
      <rect class="cls-3" x="0" width="96.21" height="96.21"/>
      <g>
        <circle class="cls-1" cx="36.14" cy="69.12" r="9.02"/>
        <path class="cls-2" d="M85.45,8.63h-1.56C82.14,3.46,77.39.03,71.8.03c-7.34,0-12.93,5.59-12.93,12.93h-2.16c-2.71,0-5.07,1.31-6.66,3.28-3.86-2.63-8.52-4.18-13.55-4.18-13.29,0-24.05,10.76-24.05,23.99v6.13c-6.98.66-12.45,6.55-12.45,13.65v26.64c0,7.58,6.19,13.71,13.77,13.71h44.62c7.58,0,13.77-6.13,13.77-13.71v-26.64c0-6.86-5.05-12.51-11.61-13.53v-6.25c0-2.04-.34-4-.82-5.89h24.81c6.19,0,11.91-5.05,11.67-11.18-.24-5.83-4.87-10.34-10.76-10.34ZM22.13,36.05c0-7.94,6.49-14.37,14.43-14.37s14.43,6.43,14.43,14.37v6.13h-28.86v-6.13ZM62.66,55.83v26.64c0,2.22-1.86,4.09-4.15,4.09H13.83c-2.29,0-4.15-1.86-4.15-4.09v-26.64c0-2.29,1.86-4.09,4.15-4.09h44.68c2.29,0,4.15,1.86,4.15,4.09Z"/>
      </g>
    </g>
  </g>
</svg>