<?xml version="1.0" encoding="UTF-8"?>
<svg id="Layer_2" data-name="Layer 2" xmlns="http://www.w3.org/2000/svg" viewBox="0 0 96.21 96.21">
  <defs>
    <style>
      .cls-1, .cls-2 {
        fill: #0070f2;
      }

      .cls-2 {
        opacity: 0;
      }
    </style>
  </defs>
  <g id="Icons_16px" data-name="Icons 16px">
    <g id="network-security-1">
      <rect class="cls-2" width="96.21" height="96.21"/>
      <g>
        <path class="cls-1" d="M91.52,68.07v-6.61c0-7.34-6.01-13.35-13.35-13.35s-13.35,5.95-13.35,13.35v6.61c-2.83,1.92-4.69,5.23-4.69,8.9v8.42c0,5.95,4.87,10.82,10.82,10.82h14.43c5.95,0,10.82-4.87,10.82-10.82v-8.42c0-3.67-1.86-6.91-4.69-8.9ZM74.44,61.45c0-2.04,1.68-3.73,3.73-3.73s3.73,1.68,3.73,3.73v4.69h-7.46v-4.69ZM86.59,85.39c0,.66-.54,1.2-1.2,1.2h-14.43c-.66,0-1.2-.54-1.2-1.2v-8.42c0-.66.54-1.2,1.2-1.2h14.43c.66,0,1.2.54,1.2,1.2v8.42Z"/>
        <path class="cls-1" d="M51.47,61.33l-16.12-8.06c.48-1.62.72-3.37.72-5.11s-.24-3.49-.72-5.05l28.26-14.13c3.25,4.39,8.48,7.22,14.49,7.22,10.1,0,18.04-7.94,18.04-18.04S88.15.12,78.05.12l.12-.12c-10.1,0-18.04,7.94-18.04,18.04,0,.6,0,1.2.06,1.8l-29.89,14.97c-3.19-2.95-7.52-4.75-12.33-4.75C7.88,30.07,0,38,0,48.1s7.94,18.04,18.04,18.04c4.75,0,9.08-1.74,12.27-4.69l16.9,8.48c2.41,1.2,5.29.24,6.43-2.16,1.2-2.41.24-5.29-2.16-6.43ZM78.17,9.62c4.87,0,8.42,3.55,8.42,8.42s-3.55,8.42-8.42,8.42-8.42-3.55-8.42-8.42,3.55-8.42,8.42-8.42ZM18.04,56.52c-4.87,0-8.42-3.55-8.42-8.42s3.55-8.42,8.42-8.42,8.42,3.55,8.42,8.42-3.55,8.42-8.42,8.42Z"/>
      </g>
    </g>
  </g>
</svg>