<?xml version="1.0" encoding="UTF-8"?>
<svg id="Layer_2" data-name="Layer 2" xmlns="http://www.w3.org/2000/svg" viewBox="0 0 96.21 96.27">
  <defs>
    <style>
      .cls-1, .cls-2 {
        fill: #0070f2;
      }

      .cls-2 {
        opacity: 0;
      }
    </style>
  </defs>
  <g id="Icons_16px" data-name="Icons 16px">
    <g id="network-security-2">
      <rect class="cls-2" y=".03" width="96.21" height="96.21"/>
      <g>
        <path class="cls-1" d="M72.16,40.41V14.43c0-2.1-1.38-3.97-3.37-4.57L37.58.24c-.42-.12-.9-.24-1.38-.24h-.24c-.48,0-.96.12-1.38.24L3.37,9.86c-1.98.6-3.37,2.47-3.37,4.57v27.66c0,30.97,31.45,40.41,33.97,41.61,0,0,1.32.48,2.1.48,2.65,0,4.81-2.16,4.81-4.81v-31.21l27.12-3.13c2.41-.3,4.03-2.29,4.15-4.63ZM31.27,70.95c-5.29-2.1-19.78-9.86-21.47-25.26l21.47,2.47v22.79ZM31.27,38.54l-21.65-2.53v-18.04l21.65-6.67v27.24ZM62.54,36.02l-21.65,2.53V11.3l21.65,6.67v18.04Z"/>
        <path class="cls-1" d="M82.32,68.49c-3.38,0-6.44,1.26-8.85,3.27l-3.39-1.95c.06-.5.15-.99.15-1.5,0-.46-.09-.9-.14-1.35l3.49-2.01c2.39,1.96,5.41,3.18,8.74,3.18,7.66,0,13.89-6.23,13.89-13.89s-6.23-13.89-13.89-13.89-13.89,6.23-13.89,13.89c0,.83.1,1.64.25,2.44l-2.78,1.6c-2.49-2.37-5.85-3.86-9.55-3.86-7.66,0-13.89,6.23-13.89,13.89s6.23,13.89,13.89,13.89c3.65,0,6.95-1.44,9.43-3.76l2.88,1.66c-.12.75-.23,1.5-.23,2.28,0,7.66,6.23,13.89,13.89,13.89s13.89-6.23,13.89-13.89-6.23-13.89-13.89-13.89ZM82.32,49.97c2.35,0,4.27,1.91,4.27,4.27s-1.91,4.27-4.27,4.27-4.27-1.92-4.27-4.27,1.92-4.27,4.27-4.27ZM56.34,72.58c-2.35,0-4.27-1.91-4.27-4.27s1.92-4.27,4.27-4.27,4.27,1.92,4.27,4.27-1.91,4.27-4.27,4.27ZM82.32,86.65c-2.35,0-4.27-1.91-4.27-4.27s1.92-4.27,4.27-4.27,4.27,1.91,4.27,4.27-1.91,4.27-4.27,4.27Z"/>
      </g>
    </g>
  </g>
</svg>