<?xml version="1.0" encoding="UTF-8"?>
<svg id="Layer_2" data-name="Layer 2" xmlns="http://www.w3.org/2000/svg" viewBox="0 0 96.24 96.24">
  <defs>
    <style>
      .cls-1, .cls-2 {
        fill: #0070f2;
      }

      .cls-2 {
        opacity: 0;
      }
    </style>
  </defs>
  <g id="Icons_16px" data-name="Icons 16px">
    <g id="user-access">
      <rect class="cls-2" x=".01" y=".01" width="96.21" height="96.21"/>
      <g>
        <path class="cls-1" d="M70.29,28.47c.9,1.02,2.22,1.56,3.55,1.56v.06h.06c1.32-.06,2.65-.66,3.55-1.68l17.62-20.44c1.74-2.04,1.5-5.05-.48-6.79-2.04-1.74-5.05-1.5-6.79.48l-14.07,16.36-5.17-5.65c-1.8-1.98-4.81-2.1-6.79-.3-1.98,1.8-2.1,4.81-.3,6.79l8.84,9.62Z"/>
        <path class="cls-1" d="M66.14,42.12c0-10.1-7.94-18.04-18.04-18.04s-18.04,7.94-18.04,18.04,7.94,18.04,18.04,18.04,18.04-7.94,18.04-18.04ZM48.1,50.54c-4.87,0-8.42-3.55-8.42-8.42s3.55-8.42,8.42-8.42,8.42,3.55,8.42,8.42-3.55,8.42-8.42,8.42Z"/>
        <path class="cls-1" d="M91.4,43.32c-2.65,0-4.81,2.16-4.81,4.81,0,8.96-3.07,17.08-8.18,23.63-4.27-7.04-12.21-11.61-20.69-11.61h-19.24c-5.23,0-10.16,1.56-14.25,4.51-2.65,1.86-4.81,4.27-6.43,7.1-5.11-6.49-8.18-14.73-8.18-23.63,0-21.23,17.26-38.54,38.48-38.54,2.65,0,4.75-2.16,4.75-4.75S50.69.09,48.1.09C21.59.03,0,21.62,0,48.13c0,14.07,6.07,26.76,15.75,35.54.3.42.72.72,1.14,1.02,8.36,7.22,19.3,11.55,31.21,11.55s22.91-4.39,31.33-11.61c.48-.3.9-.72,1.26-1.14,9.56-8.84,15.51-21.41,15.51-35.36,0-2.65-2.16-4.81-4.81-4.81ZM48.1,86.62c-8.66,0-16.66-2.83-23.09-7.7h.06c.54-1.5,1.86-4.33,4.81-6.43,2.47-1.74,5.47-2.71,8.66-2.71h19.24c5.89,0,11.3,3.67,13.47,9.08-6.49,4.87-14.49,7.76-23.15,7.76Z"/>
      </g>
    </g>
  </g>
</svg>