<?xml version="1.0" encoding="UTF-8"?>
<svg id="Layer_2" data-name="Layer 2" xmlns="http://www.w3.org/2000/svg" viewBox="0 0 96.21 96.21">
  <defs>
    <style>
      .cls-1, .cls-2 {
        fill: #0070f2;
      }

      .cls-2 {
        opacity: 0;
      }
    </style>
  </defs>
  <g id="Icons_16px" data-name="Icons 16px">
    <g id="broken-lock">
      <rect id="_Path_" data-name="&amp;lt;Path&amp;gt;" class="cls-2" y="0" width="96.21" height="96.21"/>
      <g>
        <circle class="cls-1" cx="48.1" cy="66.15" r="9.02"/>
        <path class="cls-1" d="M45.1,86.59h-22.25c-2.29,0-4.15-1.86-4.15-4.09v-26.64c0-2.28,1.86-4.09,4.15-4.09h16.23c2.65-.06,4.81-2.23,4.81-4.87s-2.17-4.81-4.81-4.81l-7.94.06v-6.13c0-7.76,6.25-14.07,13.95-14.31,2.65,0,4.81-2.17,4.81-4.81s-2.17-4.81-4.81-4.81c-13.11.24-23.63,10.88-23.63,23.93v6.2c-6.97.66-12.45,6.55-12.45,13.65v26.64c0,7.58,6.19,13.71,13.77,13.71h22.31c2.65,0,4.81-2.16,4.81-4.81s-2.17-4.81-4.81-4.81Z"/>
        <path class="cls-1" d="M68.73,36.21v-.06h-17.62c-2.65,0-4.81,2.16-4.81,4.81s2.16,4.81,4.81,4.81h16.24c2.28,0,4.15,1.8,4.15,4.09v26.64c0,2.23-1.86,4.09-4.15,4.09h-10.22c-2.65,0-4.81,2.16-4.81,4.81s2.16,4.81,4.81,4.81h10.28c7.58,0,13.77-6.13,13.77-13.71v-26.64c0-7.09-5.47-12.99-12.45-13.65Z"/>
        <path class="cls-1" d="M60.61,17.86c.42.12.9.18,1.32.18,2.1,0,4.03-1.38,4.63-3.49l2.41-8.42c.72-2.53-.72-5.23-3.31-5.95-2.53-.72-5.23.72-5.95,3.31l-2.41,8.42c-.72,2.53.72,5.23,3.31,5.95Z"/>
        <path class="cls-1" d="M87.01,21.53c-.72-2.53-3.37-4.03-5.95-3.31l-8.42,2.4c-2.53.72-4.03,3.37-3.31,5.95.6,2.11,2.53,3.49,4.63,3.49.42,0,.9-.06,1.32-.18l8.42-2.4c2.53-.72,4.03-3.37,3.31-5.95Z"/>
      </g>
    </g>
  </g>
</svg>