<?xml version="1.0" encoding="UTF-8"?>
<svg id="Layer_2" data-name="Layer 2" xmlns="http://www.w3.org/2000/svg" viewBox="0 0 96.21 96.21">
  <defs>
    <style>
      .cls-1, .cls-2 {
        fill: #0070f2;
      }

      .cls-2 {
        opacity: 0;
      }
    </style>
  </defs>
  <g id="Icons_16px" data-name="Icons 16px">
    <g id="data-leak-2">
      <rect class="cls-2" width="96.21" height="96.21"/>
      <g>
        <path class="cls-1" d="M27.96,55.32c-2.41,0-4.81,2.41-4.81,4.81s2.41,4.81,4.81,4.81h14.43c2.41,0,4.81-2.41,4.81-4.81s-2.41-4.81-4.81-4.81h-14.43Z"/>
        <path class="cls-1" d="M59.23,40.89c0-2.41-2.41-4.81-4.81-4.81h-26.46c-2.41,0-4.81,2.41-4.81,4.81s2.41,4.81,4.81,4.81h26.46c2.41,0,4.81-2.41,4.81-4.81Z"/>
        <path class="cls-1" d="M43.6,74.56h-21.65c-4.21,0-7.22-3.01-7.22-7.22V16.84c0-4.21,3.01-7.22,7.22-7.22h38.48c4.21,0,7.22,3.01,7.22,7.22v24.05c0,2.41,2.41,4.81,4.81,4.81s4.81-2.41,4.81-4.81v-24.05c0-9.02-7.82-16.84-16.84-16.84H21.95C12.93,0,5.11,7.82,5.11,16.84v50.51c0,9.02,7.82,16.84,16.84,16.84h21.65c2.41,0,4.81-2.41,4.81-4.81s-2.41-4.81-4.81-4.81Z"/>
        <path class="cls-1" d="M62.24,21.05c0-3.01-2.41-5.41-5.41-5.41s-5.41,2.41-5.41,5.41,2.41,5.41,5.41,5.41,5.41-2.41,5.41-5.41Z"/>
        <path class="cls-1" d="M91.09,76.03c-.71-9.99-12.74-21.69-14.02-22.9-1.18-1.18-2.86-1.86-4.6-1.86h-.02c-1.75,0-3.42.69-4.71,1.98-6.35,5.99-13.91,14.87-13.91,23.13v1.2c0,10.45,8.19,18.64,18.64,18.64s18.64-8.19,18.64-18.64v-1.54ZM81.48,77.57c0,5.14-3.88,9.02-9.02,9.02s-9.02-3.88-9.02-9.02v-1.2c0-3.15,3.36-8.49,8.99-14.25,4.12,4.4,8.78,10.71,9.05,14.25v1.2Z"/>
      </g>
    </g>
  </g>
</svg>