<?xml version="1.0" encoding="UTF-8"?>
<svg id="Layer_2" data-name="Layer 2" xmlns="http://www.w3.org/2000/svg" viewBox="0 0 96.21 96.21">
  <defs>
    <style>
      .cls-1, .cls-2 {
        fill: #0070f2;
      }

      .cls-2 {
        opacity: 0;
      }
    </style>
  </defs>
  <g id="Icons_16px" data-name="Icons 16px">
    <g id="data-security">
      <rect class="cls-2" width="96.21" height="96.21"/>
      <g>
        <path class="cls-1" d="M85.51,68.07v-6.61c0-7.34-6.01-13.35-13.35-13.35s-13.35,5.95-13.35,13.35v6.61c-2.83,1.92-4.69,5.23-4.69,8.9v8.42c0,5.95,4.87,10.82,10.82,10.82h14.43c5.95,0,10.82-4.87,10.82-10.82v-8.42c0-3.67-1.86-6.91-4.69-8.9ZM68.43,61.45c0-2.04,1.68-3.73,3.73-3.73s3.73,1.68,3.73,3.73v4.69h-7.46v-4.69ZM80.58,85.39c0,.66-.54,1.2-1.2,1.2h-14.43c-.66,0-1.2-.54-1.2-1.2v-8.42c0-.66.54-1.2,1.2-1.2h14.43c.66,0,1.2.54,1.2,1.2v8.42Z"/>
        <path class="cls-1" d="M42.09,74.56h-19.24c-3.97,0-7.22-3.25-7.22-7.22V16.84c0-3.97,3.25-7.22,7.22-7.22h38.48c3.97,0,7.22,3.25,7.22,7.22v19.24c0,2.65,2.16,4.81,4.81,4.81s4.81-2.16,4.81-4.81v-19.24c0-9.26-7.58-16.84-16.84-16.84H22.85C13.59,0,6.01,7.58,6.01,16.84v50.51c0,9.26,7.58,16.84,16.84,16.84h19.24c2.65,0,4.81-2.16,4.81-4.81s-2.16-4.81-4.81-4.81Z"/>
        <path class="cls-1" d="M28.86,36.08c-2.65,0-4.81,2.16-4.81,4.81s2.16,4.81,4.81,4.81h26.46c2.65,0,4.81-2.16,4.81-4.81s-2.16-4.81-4.81-4.81h-26.46Z"/>
        <path class="cls-1" d="M43.29,55.32h-14.43c-2.65,0-4.81,2.16-4.81,4.81s2.16,4.81,4.81,4.81h14.43c2.65,0,4.81-2.16,4.81-4.81s-2.16-4.81-4.81-4.81Z"/>
        <path class="cls-1" d="M63.14,21.05c0-2.99-2.42-5.41-5.41-5.41s-5.41,2.42-5.41,5.41,2.42,5.41,5.41,5.41,5.41-2.42,5.41-5.41Z"/>
      </g>
    </g>
  </g>
</svg>