<?xml version="1.0" encoding="UTF-8"?>
<svg id="Layer_2" data-name="Layer 2" xmlns="http://www.w3.org/2000/svg" viewBox="0 0 96.21 96.21">
  <defs>
    <style>
      .cls-1, .cls-2 {
        fill: #0070f2;
      }

      .cls-2 {
        opacity: 0;
      }
    </style>
  </defs>
  <g id="Icons_16px" data-name="Icons 16px">
    <g id="phishing">
      <rect class="cls-2" width="96.21" height="96.21"/>
      <path class="cls-1" d="M85.45,19.54c0-7.49-6.1-13.59-13.59-13.59s-13.59,6.1-13.59,13.59c0,5.86,3.75,10.82,8.96,12.72v39.95c0,7.94-6.49,14.37-14.43,14.37s-14.43-6.43-14.43-14.37v-8.36c0-4.93-4.81-4.75-4.81-4.75-1.26,0-2.47.48-3.43,1.38l-10.22,10.22c-1.86,1.86-1.86,4.93,0,6.79,1.86,1.86,4.93,1.86,6.79,0l2.34-2.35c1.44,11.85,11.49,21.05,23.75,21.05,13.29,0,24.05-10.76,24.05-23.99v-40.06c5.03-2,8.6-6.88,8.6-12.61ZM71.86,15.57c2.19,0,3.97,1.78,3.97,3.97s-1.78,3.97-3.97,3.97-3.97-1.78-3.97-3.97,1.78-3.97,3.97-3.97Z"/>
      <path class="cls-1" d="M33.54,52.92c-2.41,0-4.81-2.41-4.81-4.81v-3.61h-3.61c-2.41,0-4.81-2.41-4.81-4.81s2.41-4.81,4.81-4.81h10.22s1.2-.6,1.2-1.8-.6-1.8-1.2-1.8h-4.21c-6.01,0-10.82-5.41-10.82-11.42s3.61-9.62,8.42-10.82v-4.21c0-2.41,1.8-4.81,4.81-4.81s4.81,2.41,4.81,4.81v3.61h3.61c2.41,0,4.81,2.41,4.81,4.81s-2.41,4.81-4.81,4.81h-10.22s-1.2.6-1.2,1.8.6,1.8,1.2,1.8h4.21c6.01,0,10.82,5.41,10.82,11.42s-3.61,9.62-8.42,10.82v4.21c0,2.41-2.41,4.81-4.81,4.81Z"/>
    </g>
  </g>
</svg>