<?xml version="1.0" encoding="UTF-8"?>
<svg id="Layer_2" data-name="Layer 2" xmlns="http://www.w3.org/2000/svg" viewBox="0 0 96.23 96.21">
  <defs>
    <style>
      .cls-1, .cls-2 {
        fill: #0070f2;
      }

      .cls-2 {
        opacity: 0;
      }
    </style>
  </defs>
  <g id="Icons_16px" data-name="Icons 16px">
    <g id="anti-virus">
      <rect class="cls-2" x="0" width="96.21" height="96.21"/>
      <g>
        <path class="cls-1" d="M91.46,96.21s-.02,0-.03,0c-.01,0-.02,0-.03,0h.06Z"/>
        <path class="cls-1" d="M94.83,88.03l-12.99-12.99c3.97-6.86,3.01-15.57-2.94-21.52-7.1-7.1-18.28-7.1-25.38,0-7.1,7.09-7.1,18.28,0,25.37,5.95,5.89,14.67,6.91,21.53,2.95l12.99,12.99c.96.9,2.21,1.37,3.4,1.38,1.25,0,2.44-.42,3.4-1.38,1.86-1.86,1.86-4.93,0-6.79ZM72.1,72.04c-3.43,3.43-8.36,3.43-11.79,0-3.43-3.43-3.43-8.36,0-11.79s8.36-3.43,11.79,0c3.43,3.43,3.43,8.36,0,11.79Z"/>
        <path class="cls-1" d="M50.51,28.86v8.42c0,2.65,2.16,4.81,4.81,4.81h12.03c2.65,0,4.81-2.16,4.81-4.81v-14.43c0-2.65-2.17-4.81-4.81-4.81s-4.81,2.17-4.81,4.81v9.62h-2.4v-3.61c0-5.35-3.91-9.8-9.02-10.64v-3.19c0-8.3-6.74-15.03-15.03-15.03s-15.03,6.74-15.03,15.03v3.19c-5.11.84-9.02,5.29-9.02,10.64v3.61h-2.4v-9.62c0-2.65-2.17-4.81-4.81-4.81S0,20.21,0,22.85v14.43c0,2.65,2.16,4.81,4.81,4.81h7.22v6.01h-7.22c-2.65,0-4.81,2.17-4.81,4.81v14.43c0,2.65,2.16,4.81,4.81,4.81s4.81-2.16,4.81-4.81v-9.62h2.77c1.74,11.54,11.67,20.44,23.69,20.44,2.65,0,4.81-2.16,4.81-4.81s-2.16-4.81-4.81-4.81c-7.94,0-14.43-6.49-14.43-14.43v-25.25c0-.66.54-1.2,1.2-1.2h8.42v15.63c0,2.65,2.17,4.81,4.81,4.81s4.81-2.16,4.81-4.81v-15.63h8.42c.66,0,1.2.54,1.2,1.2ZM41.49,18.04h-10.82v-3.01c0-3.01,2.4-5.41,5.41-5.41s5.41,2.4,5.41,5.41v3.01Z"/>
      </g>
    </g>
  </g>
</svg>