<?xml version="1.0" encoding="UTF-8"?>
<svg id="Layer_2" data-name="Layer 2" xmlns="http://www.w3.org/2000/svg" viewBox="0 0 96.21 96.26">
  <defs>
    <style>
      .cls-1, .cls-2 {
        fill: #0070f2;
      }

      .cls-2 {
        opacity: 0;
      }
    </style>
  </defs>
  <g id="Icons_16px" data-name="Icons 16px">
    <g id="bug">
      <rect class="cls-2" y=".03" width="96.21" height="96.21"/>
      <path class="cls-1" d="M84.4,48.16c2.58,0,4.68-2.18,4.68-4.81v-14.43c0-2.66-2.1-4.81-4.68-4.81s-4.68,2.18-4.68,4.81v9.62h-2.33v-3.62c0-5.95-4.73-10.84-10.53-10.84h-1.16v-6.03c0-10.1-7.72-18.05-17.57-18.05s-17.57,7.95-17.57,18.05v6.03h-1.16c-5.8,0-10.53,4.86-10.53,10.84v3.62h-2.35v-9.62c0-2.66-2.1-4.81-4.68-4.81s-4.68,2.18-4.68,4.81v14.43c0,2.66,2.1,4.81,4.68,4.81h7.04v12.03h-7.04c-2.58,0-4.68,2.18-4.68,4.81v14.43c0,2.66,2.1,4.81,4.68,4.81s4.68-2.18,4.68-4.81v-9.62h2.68c1.75,14.86,14,26.46,28.91,26.46s27.17-11.6,28.91-26.46h2.68v9.62c0,2.66,2.1,4.81,4.68,4.81s4.68-2.18,4.68-4.81v-14.43c0-2.66-2.1-4.81-4.68-4.81h-7.04v-12.03h7.06ZM39.89,18.1c0-4.86,3.44-8.43,8.2-8.43s8.2,3.54,8.2,8.43v6.03h-16.38v-6.03h-.03ZM48.09,86.64c-10.94,0-19.9-9.19-19.9-20.46v-31.27c0-.66.53-1.22,1.16-1.22h14.05v21.65c0,2.66,2.1,4.81,4.68,4.81s4.68-2.18,4.68-4.81v-21.65h14.05c.63,0,1.16.53,1.16,1.22v31.27c0,11.32-8.96,20.46-19.9,20.46Z"/>
    </g>
  </g>
</svg>