<?xml version="1.0" encoding="UTF-8"?>
<svg id="Layer_2" data-name="Layer 2" xmlns="http://www.w3.org/2000/svg" viewBox="0 0 96.21 96.22">
  <defs>
    <style>
      .cls-1, .cls-2 {
        fill: #0070f2;
      }

      .cls-2 {
        opacity: 0;
      }
    </style>
  </defs>
  <g id="Icons_16px" data-name="Icons 16px">
    <g id="security-warning">
      <rect class="cls-2" y="0" width="96.21" height="96.21"/>
      <g>
        <circle class="cls-1" cx="42.17" cy="57.06" r="9.02"/>
        <path class="cls-1" d="M48.79,74.5h-28.92c-2.29,0-4.15-1.86-4.15-4.09v-26.64c0-2.29,1.86-4.09,4.15-4.09h44.68c2.29,0,4.15,1.86,4.15,4.09v11.61c0,2.59,2.16,4.75,4.75,4.75s4.75-2.16,4.75-4.75v-11.61c0-6.86-5.05-12.51-11.61-13.53v-6.25c0-13.23-10.76-23.99-24.05-23.99s-24.05,10.76-24.05,23.99v6.13c-6.98.66-12.45,6.55-12.45,13.65v26.64c0,7.58,6.19,13.71,13.77,13.71h28.98c2.65,0,4.81-2.16,4.81-4.81s-2.16-4.81-4.81-4.81ZM28.16,23.99c0-7.94,6.49-14.37,14.43-14.37s14.43,6.43,14.43,14.37v6.13h-28.86v-6.13Z"/>
        <path class="cls-1" d="M81.98,81.24l6.79-6.79c1.86-1.86,1.86-4.93,0-6.79-1.86-1.86-4.93-1.86-6.79,0l-6.79,6.79-6.79-6.79c-1.86-1.86-4.93-1.86-6.79,0-1.86,1.86-1.86,4.93,0,6.79l6.79,6.79-6.79,6.79c-1.86,1.86-1.86,4.93,0,6.79,1.86,1.86,4.93,1.86,6.79,0l6.79-6.79,6.79,6.79c.95.89,2.2,1.37,3.4,1.38,1.25,0,2.44-.42,3.4-1.38,1.86-1.86,1.86-4.93,0-6.79l-6.79-6.79Z"/>
        <path class="cls-1" d="M85.41,96.21s-.02,0-.03,0c-.01,0-.02,0-.03,0h.06Z"/>
      </g>
    </g>
  </g>
</svg>