<?xml version="1.0" encoding="UTF-8"?>
<svg id="Layer_2" data-name="Layer 2" xmlns="http://www.w3.org/2000/svg" viewBox="0 0 96.21 96.21">
  <defs>
    <style>
      .cls-1, .cls-2 {
        fill: #0070f2;
      }

      .cls-2 {
        opacity: 0;
      }
    </style>
  </defs>
  <g id="Icons_16px" data-name="Icons 16px">
    <g id="password">
      <rect class="cls-2" width="96.21" height="96.21"/>
      <g>
        <path class="cls-1" d="M76.37,37.58c0-2.65-2.16-4.81-4.81-4.81s-4.81,2.16-4.81,4.81,2.16,4.81,4.81,4.81,4.81-2.16,4.81-4.81Z"/>
        <path class="cls-1" d="M55.92,32.77c-2.65,0-4.81,2.16-4.81,4.81s2.16,4.81,4.81,4.81,4.81-2.16,4.81-4.81-2.16-4.81-4.81-4.81Z"/>
        <path class="cls-1" d="M35.48,37.58c0,2.65,2.16,4.81,4.81,4.81s4.81-2.16,4.81-4.81-2.16-4.81-4.81-4.81-4.81,2.16-4.81,4.81Z"/>
        <path class="cls-1" d="M19.84,37.58c0,2.65,2.16,4.81,4.81,4.81s4.81-2.16,4.81-4.81-2.16-4.81-4.81-4.81-4.81,2.16-4.81,4.81Z"/>
        <path class="cls-1" d="M79.37,10.52H16.84C7.58,10.52,0,18.1,0,27.36v20.44c0,9.26,7.58,16.84,16.84,16.84h32.47c2.65,0,4.81-2.16,4.81-4.81s-2.16-4.81-4.81-4.81H16.84c-3.97,0-7.22-3.25-7.22-7.22v-20.44c0-3.97,3.25-7.22,7.22-7.22h62.54c3.97,0,7.22,3.25,7.22,7.22v16.05c0,2.65,2.16,4.81,4.81,4.81s4.81-2.16,4.81-4.81v-16.05c0-9.26-7.58-16.84-16.84-16.84Z"/>
        <path class="cls-1" d="M96.15,62.9c-.12-1.92-1.38-3.61-3.25-4.21l-26.46-8.84c-1.74-.6-3.67-.18-4.93,1.14-1.26,1.32-1.74,3.19-1.14,4.93l8.84,26.46c.6,1.8,2.29,3.13,4.21,3.25,1.92.12,3.79-.9,4.63-2.65l1.98-3.97,8.72,5.77c.78.54,1.74.78,2.65.78l-.12.12c1.26,0,2.53-.48,3.43-1.38,1.62-1.62,1.86-4.15.6-6.07l-5.77-8.72,3.97-1.98c1.74-.84,2.77-2.71,2.65-4.63Z"/>
      </g>
    </g>
  </g>
</svg>