<?xml version="1.0" encoding="UTF-8"?>
<svg id="Layer_2" data-name="Layer 2" xmlns="http://www.w3.org/2000/svg" viewBox="0 0 96.21 96.21">
  <defs>
    <style>
      .cls-1, .cls-2 {
        fill: #0070f2;
      }

      .cls-2 {
        opacity: 0;
      }
    </style>
  </defs>
  <g id="Icons_16px" data-name="Icons 16px">
    <g id="email-virus">
      <rect class="cls-2" width="96.21" height="96.21"/>
      <g>
        <path class="cls-1" d="M50.51,34.12v8.42c0,2.65,2.16,4.81,4.81,4.81h12.03c2.65,0,4.81-2.16,4.81-4.81v-14.43c0-2.65-2.16-4.81-4.81-4.81s-4.81,2.16-4.81,4.81v9.62h-2.41v-3.61c0-5.35-3.91-9.8-9.02-10.64v-3.19c0-8.3-6.73-15.03-15.03-15.03s-15.03,6.73-15.03,15.03v3.19c-5.11.84-9.02,5.29-9.02,10.64v3.61h-2.41v-9.62c0-2.65-2.16-4.81-4.81-4.81S0,25.47,0,28.11v14.43c0,2.65,2.16,4.81,4.81,4.81h7.22v6.01h-7.22c-2.65,0-4.81,2.16-4.81,4.81v14.43c0,2.65,2.16,4.81,4.81,4.81s4.81-2.16,4.81-4.81v-9.62h2.77c1.74,11.55,11.67,20.44,23.69,20.44,2.65,0,4.81-2.16,4.81-4.81s-2.16-4.81-4.81-4.81c-7.94,0-14.43-6.49-14.43-14.43v-25.26c0-.66.54-1.2,1.2-1.2h8.42v15.63c0,2.65,2.16,4.81,4.81,4.81s4.81-2.16,4.81-4.81v-15.63h8.42c.66,0,1.2.54,1.2,1.2ZM41.49,23.3h-10.82v-3.01c0-3.01,2.41-5.41,5.41-5.41s5.41,2.41,5.41,5.41v3.01Z"/>
        <path class="cls-1" d="M91.4,54.87h-38.48c-2.65,0-4.81,2.16-4.81,4.81v26.46c0,2.65,2.16,4.81,4.81,4.81h38.48c2.65,0,4.81-2.16,4.81-4.81v-26.46c0-2.65-2.16-4.81-4.81-4.81ZM86.59,81.33h-28.86v-14.31l12.51,5.47c1.2.54,2.65.54,3.85,0l12.51-5.47v14.31Z"/>
      </g>
    </g>
  </g>
</svg>