<?xml version="1.0" encoding="UTF-8"?>
<svg id="Layer_2" data-name="Layer 2" xmlns="http://www.w3.org/2000/svg" viewBox="0 0 96.24 96.21">
  <defs>
    <style>
      .cls-1, .cls-2 {
        fill: #0070f2;
      }

      .cls-2 {
        opacity: 0;
      }
    </style>
  </defs>
  <g id="Icons_16px" data-name="Icons 16px">
    <g id="code-issues">
      <rect class="cls-2" x=".02" width="96.21" height="96.21"/>
      <g>
        <path class="cls-1" d="M91.47,96.21s-.02,0-.03,0c-.01,0-.02,0-.03,0h.06Z"/>
        <path class="cls-1" d="M81.85,75.04c3.97-6.85,3.01-15.57-2.95-21.53-7.1-7.1-18.28-7.1-25.38,0-7.1,7.1-7.1,18.28,0,25.38,5.95,5.89,14.67,6.92,21.53,2.95l12.99,12.99c.95.89,2.2,1.37,3.4,1.38,1.25,0,2.44-.42,3.4-1.38,1.86-1.86,1.86-4.93,0-6.79l-12.99-12.99ZM72.11,72.04c-3.43,3.43-8.36,3.43-11.79,0-3.43-3.43-3.43-8.36,0-11.79,3.43-3.43,8.36-3.43,11.79,0,3.43,3.43,3.43,8.36,0,11.79Z"/>
        <path class="cls-1" d="M19.86,21.47v-7.28c0-2.59,1.92-4.57,4.39-4.57h1.02c2.65,0,4.81-2.16,4.81-4.81S27.92,0,25.27,0h-1.02c-7.7,0-14.01,6.37-14.01,14.19v7.28c0,1.44-.6,2.77-1.68,3.91l-7.16,7.28c-1.86,1.86-1.86,4.87,0,6.73l7.16,7.28c1.08,1.08,1.68,2.47,1.68,3.91v7.28c0,7.82,6.31,14.19,14.01,14.19h1.02c2.65,0,4.81-2.16,4.81-4.81s-2.16-4.81-4.81-4.81h-1.02c-2.47,0-4.39-1.98-4.39-4.57v-7.28c0-3.91-1.56-7.7-4.45-10.64l-3.85-3.91,3.85-3.91c2.89-2.89,4.45-6.67,4.45-10.64Z"/>
        <path class="cls-1" d="M70.97,9.62h1.02c2.47,0,4.39,1.98,4.39,4.57v7.28c0,3.91,1.56,7.7,4.45,10.64l3.85,3.91-3.67,3.73c-1.86,1.86-1.86,4.93,0,6.79,1.86,1.86,4.87,1.86,6.73,0l.12-.12,6.98-7.1c1.86-1.86,1.86-4.87,0-6.73v.06l-7.16-7.28c-1.08-1.08-1.68-2.47-1.68-3.91v-7.28c0-7.82-6.31-14.19-14.01-14.19h-1.02c-2.65,0-4.81,2.16-4.81,4.81s2.16,4.81,4.81,4.81Z"/>
        <path class="cls-1" d="M52.81,43.29c0-2.59-2.1-4.69-4.69-4.69s-4.69,2.1-4.69,4.69,2.1,4.69,4.69,4.69,4.69-2.1,4.69-4.69Z"/>
        <path class="cls-1" d="M48.12,32.35c2.04,0,3.79-1.68,3.79-3.79v-12.69c0-2.04-1.74-3.79-3.79-3.79s-3.79,1.68-3.79,3.79v12.69c0,2.04,1.68,3.79,3.79,3.79Z"/>
      </g>
    </g>
  </g>
</svg>