<?xml version="1.0" encoding="UTF-8"?>
<svg id="Layer_2" data-name="Layer 2" xmlns="http://www.w3.org/2000/svg" viewBox="0 0 96.21 96.2">
  <defs>
    <style>
      .cls-1 {
        fill: rgba(0, 112, 242, 0);
        opacity: 0;
      }

      .cls-2 {
        fill: #0070f2;
      }
    </style>
  </defs>
  <g id="Icons_16px" data-name="Icons 16px">
    <g id="equestrian">
      <path class="cls-1" d="M0,0h96.21v96.2H0V0Z"/>
      <path class="cls-2" d="M85.41,17.51C78.08,6.69,66.22.95,50.24.31c-.42-.06-.84-.13-1.27-.13-.3,0-.56.03-.86.04-.29,0-.56-.04-.86-.04-.43,0-.85.07-1.27.13C29.99.95,18.13,6.69,10.8,17.51c-17.24,25.47-.98,68.07.93,72.84,1.41,3.53,4.79,5.67,8.37,5.67,1.11,0,2.25-.21,3.34-.65,4.62-1.84,6.88-7.09,5.04-11.72-4.19-10.53-12.85-41.13-2.73-56.05,4.17-6.15,11.51-9.2,22.35-9.36,10.84.16,18.18,3.21,22.35,9.36,10.12,14.92,1.46,45.51-2.73,56.05-1.84,4.62.41,9.87,5.04,11.72,1.1.44,2.23.65,3.34.65,3.58,0,6.96-2.14,8.37-5.67,1.91-4.77,18.17-47.37.93-72.84ZM12.01,37.27c2.84,0,5.15,2.3,5.15,5.15s-2.3,5.15-5.15,5.15-5.15-2.3-5.15-5.15,2.3-5.15,5.15-5.15ZM7.51,58.4c0-2.85,2.3-5.15,5.15-5.15s5.15,2.3,5.15,5.15-2.3,5.14-5.15,5.14-5.15-2.3-5.15-5.14ZM15.83,79.54c-2.84,0-5.15-2.3-5.15-5.15s2.3-5.15,5.15-5.15,5.15,2.3,5.15,5.15-2.3,5.15-5.15,5.15ZM15.97,31.57c-2.84,0-5.15-2.3-5.15-5.15s2.3-5.15,5.15-5.15,5.15,2.3,5.15,5.15-2.3,5.15-5.15,5.15ZM89.2,42.41c0,2.84-2.3,5.15-5.15,5.15s-5.15-2.3-5.15-5.15,2.3-5.15,5.15-5.15,5.15,2.3,5.15,5.15ZM74.94,26.43c0-2.84,2.3-5.15,5.15-5.15s5.15,2.3,5.15,5.15-2.3,5.15-5.15,5.15-5.15-2.3-5.15-5.15ZM80.23,79.54c-2.84,0-5.15-2.3-5.15-5.15s2.3-5.15,5.15-5.15,5.15,2.3,5.15,5.15-2.3,5.15-5.15,5.15ZM83.4,63.55c-2.85,0-5.15-2.3-5.15-5.14s2.3-5.15,5.15-5.15,5.14,2.3,5.14,5.15-2.3,5.14-5.14,5.14Z"/>
    </g>
  </g>
</svg>