<?xml version="1.0" encoding="UTF-8"?>
<svg id="Layer_2" data-name="Layer 2" xmlns="http://www.w3.org/2000/svg" viewBox="0 0 96.21 96.2">
  <defs>
    <style>
      .cls-1 {
        fill: rgba(0, 112, 242, 0);
        opacity: 0;
      }

      .cls-2 {
        fill: #0070f2;
      }
    </style>
  </defs>
  <g id="Icons_16px" data-name="Icons 16px">
    <g id="golf-2">
      <path class="cls-1" d="M0,0h96.21v96.2H0V0Z"/>
      <g>
        <path class="cls-2" d="M45.7,20.17c4.58,0,8.29-3.71,8.29-8.29,0-2.29-.93-4.36-2.43-5.86-1.5-1.5-3.57-2.43-5.86-2.43,0,0,0,0-.01,0-1.08,0-2.1.22-3.04.6-.03.01-.06.01-.09.03-.95.39-1.79.95-2.53,1.64,0,0-.02.02-.03.03-1.49,1.42-2.43,3.37-2.54,5.56h0c0,.15-.04.29-.04.44,0,4.58,3.71,8.29,8.29,8.29Z"/>
        <path class="cls-2" d="M31.45,11.27c.16-3.7,1.68-7.05,4.14-9.5l-18.93-.55v.1c-.31.06-.61.16-.89.33-.59.36-1.01.94-1.17,1.61l-3.95,16.63c-.33,1.4.53,2.8,1.93,3.13l7.21,1.71c.2.05.4.07.6.07.53,0,1.06-.16,1.5-.48.61-.43,1-1.11,1.08-1.85l1.2-11.42,7.27.21Z"/>
        <path class="cls-2" d="M84.56,4.88c-.92-1.14-2.25-1.69-3.61-1.73v-.06s-24.65-.72-24.65-.72c2.27,2.53,3.7,5.85,3.7,9.51,0,.08-.02.15-.02.23l7.7.23-11.39,9.2c-.42,0-.84,0-1.26.14l-8.76,2.78c-2.4.76-3.73,3.32-2.97,5.72l6.84,21.57c.09.29.28.51.42.77l-8,15.45-17.22,19.01c-1.79,1.97-1.64,5.01.33,6.79.92.83,2.08,1.24,3.23,1.24,1.31,0,2.62-.53,3.57-1.58l17.64-19.47c.28-.31.51-.65.7-1.02l8.91-17.2,1.73,4.32-3.62,29.34c-.33,2.64,1.55,5.04,4.18,5.36.2.02.4.04.6.04,2.39,0,4.47-1.79,4.77-4.22l3.77-30.57c.1-.8,0-1.62-.31-2.38l-3.39-8.49c.34-.92.46-1.93.14-2.94l-5.41-17.07,21.66-17.49c2.07-1.67,2.39-4.7.72-6.76Z"/>
      </g>
    </g>
  </g>
</svg>