<?xml version="1.0" encoding="UTF-8"?>
<svg id="Layer_2" data-name="Layer 2" xmlns="http://www.w3.org/2000/svg" viewBox="0 0 96.21 96.2">
  <defs>
    <style>
      .cls-1 {
        fill: rgba(0, 112, 242, 0);
        opacity: 0;
      }

      .cls-2 {
        fill: #0070f2;
      }
    </style>
  </defs>
  <g id="Icons_16px" data-name="Icons 16px">
    <g id="venue">
      <path class="cls-1" d="M0,0h96.21v96.2H0V0Z"/>
      <path class="cls-2" d="M64.56,62.39c6.3-11.49,11.53-25.57,11.53-33.73,0-15.45-12.53-27.98-27.98-27.98s-27.98,12.53-27.98,27.98c0,8.16,5.24,22.24,11.53,33.73-11.64,2.91-19.63,8.79-19.63,15.6,0,9.68,16.15,17.54,36.08,17.54s36.08-7.85,36.08-17.54c0-6.8-7.98-12.69-19.63-15.6ZM48.21,15.47c7.16,0,12.95,5.8,12.95,12.95s-5.8,12.95-12.95,12.95-12.95-5.8-12.95-12.95,5.8-12.95,12.95-12.95ZM48.11,85.9c-15.92,0-25.15-5.53-26.39-7.92.92-1.75,6.2-5.21,15.27-6.91,4.06,5.83,8.1,9.8,11.13,9.8s7.06-3.96,11.13-9.8c9.07,1.7,14.35,5.16,15.27,6.91-1.25,2.38-10.47,7.92-26.39,7.92Z"/>
    </g>
  </g>
</svg>