<?xml version="1.0" encoding="UTF-8"?>
<svg id="Layer_2" data-name="Layer 2" xmlns="http://www.w3.org/2000/svg" viewBox="0 0 96.21 96.2">
  <defs>
    <style>
      .cls-1 {
        fill: rgba(0, 112, 242, 0);
        opacity: 0;
      }

      .cls-2 {
        fill: #0070f2;
      }
    </style>
  </defs>
  <g id="Icons_16px" data-name="Icons 16px">
    <g id="esports">
      <path class="cls-1" d="M0,0h96.21v96.2H0V0Z"/>
      <g>
        <path class="cls-2" d="M95.17,63.25l-7.73-36.6-.19-.67c-1.96-5.31-5.88-9.55-11.02-11.92-5.15-2.37-10.91-2.6-16.22-.63-3.66,1.35-6.79,3.66-9.2,6.73h-5.38c-2.41-3.08-5.55-5.38-9.2-6.73-5.31-1.96-11.08-1.74-16.22.63-5.15,2.37-9.06,6.61-11.02,11.92L1.04,63.25c-1.32,3.85-1.11,7.98.6,11.68,1.76,3.82,4.9,6.73,8.84,8.18,3.95,1.46,8.22,1.29,12.04-.47,3.7-1.71,6.55-4.71,8.05-8.49l2.94-5.39h29.19l2.94,5.39c1.49,3.78,4.34,6.79,8.05,8.49,2.1.97,4.34,1.45,6.58,1.45,1.84,0,3.68-.33,5.46-.98,3.95-1.46,7.09-4.36,8.85-8.18,1.71-3.71,1.91-7.84.6-11.68ZM85.83,70.91c-.68,1.49-1.91,2.61-3.44,3.18-1.53.56-3.19.5-4.68-.18s-2.62-1.91-3.18-3.44l-6.11-11.32H27.79l-5.82,10.68-.29.64c-.57,1.53-1.7,2.75-3.18,3.44s-3.15.75-4.68.18c-1.53-.56-2.75-1.69-3.44-3.18s-.75-3.15-.18-4.68l7.91-37.22c1.11-2.76,3.19-4.96,5.91-6.21,2.81-1.3,5.96-1.42,8.86-.35,3.09,1.14,4.9,3.34,5.88,4.98l1.4,2.35h15.9l1.4-2.35c.98-1.64,2.79-3.84,5.88-4.98,2.9-1.07,6.05-.95,8.86.35,2.72,1.25,4.8,3.45,5.91,6.21l7.72,36.54.19.67c.57,1.54.5,3.2-.18,4.68Z"/>
        <path class="cls-2" d="M36.76,37.23h-.92v-.92c0-2.66-2.15-4.81-4.81-4.81s-4.81,2.16-4.81,4.81v.92h-.92c-2.66,0-4.81,2.16-4.81,4.81s2.15,4.81,4.81,4.81h.92v.92c0,2.66,2.15,4.81,4.81,4.81s4.81-2.15,4.81-4.81v-.92h.92c2.65,0,4.81-2.16,4.81-4.81s-2.16-4.81-4.81-4.81Z"/>
        <path class="cls-2" d="M59.27,33.14c-1.8,1.8-1.8,4.71,0,6.51,1.8,1.8,4.71,1.8,6.51,0,1.8-1.8,1.8-4.71,0-6.51-1.8-1.8-4.71-1.8-6.51,0Z"/>
        <circle class="cls-2" cx="72.83" cy="46.7" r="4.6"/>
      </g>
    </g>
  </g>
</svg>