<?xml version="1.0" encoding="UTF-8"?>
<svg id="Layer_2" data-name="Layer 2" xmlns="http://www.w3.org/2000/svg" viewBox="0 0 96.21 96.2">
  <defs>
    <style>
      .cls-1 {
        fill: rgba(0, 112, 242, 0);
        opacity: 0;
      }

      .cls-2 {
        fill: #0070f2;
      }
    </style>
  </defs>
  <g id="Icons_16px" data-name="Icons 16px">
    <g id="motorspors-2">
      <path class="cls-1" d="M0,0h96.21v96.2H0V0Z"/>
      <path class="cls-2" d="M87.23,54.19h-6.25c-2.82,0-5.11,2.29-5.11,5.11v2.7h-7.75v-21.2c0-.43-.09-.85-.27-1.24l-6.27-13.78h8.28v2.7c0,2.82,2.29,5.11,5.11,5.11h6.25c2.82,0,5.11-2.29,5.11-5.11v-15.02c0-2.82-2.28-5.11-5.11-5.11h-6.25c-2.82,0-5.11,2.29-5.11,5.11v2.7h-10.69v-3.21h7.06c1.66,0,3.01-1.34,3.01-3.01V3.48c0-1.66-1.35-3.01-3.01-3.01H29.98c-1.66,0-3.01,1.34-3.01,3.01v6.45c0,1.66,1.34,3.01,3.01,3.01h7.06v3.21h-10.7v-2.7c0-2.82-2.28-5.11-5.11-5.11h-6.25c-2.82,0-5.11,2.29-5.11,5.11v15.02c0,2.82,2.29,5.11,5.11,5.11h6.25c2.82,0,5.11-2.29,5.11-5.11v-2.7h8.29l-6.27,13.78c-.18.39-.27.82-.27,1.24v21.2h-7.76v-2.7c0-2.82-2.28-5.11-5.11-5.11h-6.25c-2.82,0-5.11,2.29-5.11,5.11v15.02c0,2.82,2.29,5.11,5.11,5.11h6.25c1.6,0,2.98-.79,3.91-1.94v15.24c0,1.66,1.34,3.01,3.01,3.01h51.91c1.66,0,3.01-1.35,3.01-3.01v-15.24c.93,1.16,2.31,1.94,3.91,1.94h6.25c2.82,0,5.11-2.28,5.11-5.11v-15.02c0-2.82-2.28-5.11-5.11-5.11ZM28.09,73.16h-5.94c-.7,0-1.3.27-1.81.67v-2.21h7.76v1.54ZM54.2,57.21h-12.19v-13.17c0-3.36,2.73-6.09,6.09-6.09s6.09,2.73,6.09,6.09v13.17ZM75.87,73.83c-.51-.4-1.12-.67-1.81-.67h-5.94v-1.54h7.75v2.21Z"/>
    </g>
  </g>
</svg>