<?xml version="1.0" encoding="UTF-8"?>
<svg id="Layer_2" data-name="Layer 2" xmlns="http://www.w3.org/2000/svg" viewBox="0 0 96.21 96.21">
  <defs>
    <style>
      .cls-1 {
        fill: rgba(0, 112, 242, 0);
        opacity: 0;
      }

      .cls-2 {
        fill: #0070f2;
      }
    </style>
  </defs>
  <g id="Icons_16px" data-name="Icons 16px">
    <g id="entertainment">
      <path class="cls-1" d="M0,0h96.21v96.2H0V0Z"/>
      <g>
        <path class="cls-2" d="M88.45,39.26v-4.17C88.45,15.74,72.71,0,53.36,0h-10.5C23.5,0,7.76,15.74,7.76,35.1v4.17c-4.09.26-7.36,3.58-7.36,7.74v23.72c0,4.32,3.5,7.83,7.83,7.83h8.54c4.32,0,7.83-3.5,7.83-7.83v-23.72c0-4.12-3.21-7.4-7.25-7.71v-4.19c0-14.07,11.44-25.52,25.51-25.52h10.5c14.07,0,25.51,11.45,25.51,25.52v4.19c-4.04.31-7.25,3.59-7.25,7.71v23.72c0,4.32,3.5,7.83,7.83,7.83h8.54c4.32,0,7.83-3.5,7.83-7.83v-23.72c0-4.16-3.27-7.48-7.36-7.74Z"/>
        <path class="cls-2" d="M36.91,46.87c-3.58,1.93-5.44,5.66-4.15,8.74,1.39,3.34,5.92,4.63,10.1,2.88,3.94-1.64,6.14-5.39,5.23-8.61.02-.65-.08-1.32-.35-1.96l-6.4-15.34,8.18-3.42,4.4,10.54c-3.37,1.98-5.07,5.58-3.82,8.57,1.39,3.34,5.92,4.63,10.1,2.88,4.19-1.75,6.45-5.87,5.06-9.21-.07-.17-.24-.27-.33-.44-.05-.18-.04-.38-.11-.56l-8.13-19.49c-.06-.21-.04-.42-.12-.62l-1.39-3.32c-1.06-2.53-3.96-3.73-6.5-2.67l-16.97,7.09c-2.53,1.06-3.73,3.96-2.67,6.49l1.39,3.32c.12.29.34.49.5.74l6,14.37Z"/>
        <path class="cls-2" d="M64.44,64.87l-11.99-4.12c-2.28-.78-4.76.43-5.54,2.7l-1.56,4.55c-.1.29-.08.59-.12.88l-4.89,14.23c-3.95-.92-7.8.55-8.89,3.7-1.18,3.42,1.35,7.39,5.63,8.87,3.96,1.36,7.93.04,9.46-2.85.51-.5.96-1.09,1.21-1.82l5.41-15.72,6.88,2.37c2.27.78,4.75-.43,5.54-2.7l1.56-4.55c.78-2.27-.43-4.75-2.7-5.54Z"/>
      </g>
    </g>
  </g>
</svg>