<?xml version="1.0" encoding="UTF-8"?>
<svg id="Layer_2" data-name="Layer 2" xmlns="http://www.w3.org/2000/svg" viewBox="0 0 96.21 96.2">
  <defs>
    <style>
      .cls-1 {
        fill: rgba(0, 112, 242, 0);
        opacity: 0;
      }

      .cls-2 {
        fill: #0070f2;
      }
    </style>
  </defs>
  <g id="Icons_16px" data-name="Icons 16px">
    <g id="venue-2">
      <path class="cls-1" d="M0,0h96.21v96.2H0V0Z"/>
      <path class="cls-2" d="M70.65,0C61.56,0,53.96,6.41,52.05,14.94H11.29c-1.95,0-3.7,1.17-4.45,2.97-.74,1.8-.33,3.87,1.04,5.24l27.52,27.52v28.9l-17.17,7.38c-2.1.9-3.27,3.15-2.81,5.39.46,2.23,2.43,3.84,4.71,3.84h40.17c2.28,0,4.25-1.61,4.71-3.84.46-2.24-.71-4.49-2.81-5.39l-17.17-7.38v-28.91l15.49-15.49c3.03,1.9,6.54,2.99,10.14,2.99,10.52,0,19.08-8.56,19.08-19.08S81.18,0,70.65,0ZM57.53,24.57l-17.31,17.31-17.31-17.31h34.63ZM70.65,28.55c-1.04,0-2.05-.18-3-.5l4.89-4.89c1.38-1.38,1.79-3.44,1.05-5.24-.75-1.8-2.5-2.97-4.45-2.97h-6.95c1.54-3.13,4.74-5.31,8.46-5.31,5.22,0,9.46,4.24,9.46,9.46s-4.25,9.46-9.46,9.46Z"/>
    </g>
  </g>
</svg>