<?xml version="1.0" encoding="UTF-8"?>
<svg id="Layer_2" data-name="Layer 2" xmlns="http://www.w3.org/2000/svg" viewBox="0 0 96.21 96.2">
  <defs>
    <style>
      .cls-1 {
        fill: rgba(0, 112, 242, 0);
        opacity: 0;
      }

      .cls-2 {
        fill: #0070f2;
      }
    </style>
  </defs>
  <g id="Icons_16px" data-name="Icons 16px">
    <g id="football">
      <path class="cls-1" d="M0,0h96.21v96.2H0V0Z"/>
      <path class="cls-2" d="M95.68,81.38l-7.96-22.95c-.67-1.93-2.5-3.23-4.55-3.23h-14.41l-4.42-12.34c5.15-1.13,9.46-2.16,10.79-2.73,1.91-.82,8.47.82,4.92-10.93-3.9-12.88-16.08-20.76-35.76-20.76C19.99,8.43,1.26,26.2.3,48.06c-.31,7.09,1.33,18.02,10.07,28.4,0,0,1.49,4.67,10.66,6.56,10.22,2.11,20.22,4.37,24.86,4.37s12.84-.55,11.2-12.57c-.75-5.48-1.96-8.21-3.12-10h8.02l7.08,19.76c.69,1.91,2.5,3.19,4.53,3.19h17.54c1.56,0,3.02-.75,3.92-2.02.9-1.27,1.14-2.89.63-4.36ZM37.48,70.56c-5.09,0-9.2-4.12-9.2-9.2s4.12-9.2,9.2-9.2,9.2,4.12,9.2,9.2-4.12,9.2-9.2,9.2ZM50.33,55.2c-.4-3.73.01-8.02,4.62-10.04l3.59,10.04h-8.21ZM76.98,78.14l-4.77-13.33h7.54l4.62,13.33h-7.39Z"/>
    </g>
  </g>
</svg>