<?xml version="1.0" encoding="UTF-8"?>
<svg id="Layer_2" data-name="Layer 2" xmlns="http://www.w3.org/2000/svg" viewBox="0 0 96.21 96.2">
  <defs>
    <style>
      .cls-1 {
        fill: rgba(0, 112, 242, 0);
        opacity: 0;
      }

      .cls-2 {
        fill: #0070f2;
      }
    </style>
  </defs>
  <g id="Icons_16px" data-name="Icons 16px">
    <g id="motorspors">
      <path class="cls-1" d="M0,0h96.21v96.2H0V0Z"/>
      <g>
        <path class="cls-2" d="M24.56,53.23c-3.8,0-6.9,3.09-6.9,6.9s3.09,6.9,6.9,6.9,6.9-3.09,6.9-6.9-3.09-6.9-6.9-6.9Z"/>
        <path class="cls-2" d="M70.62,53.23c-3.81,0-6.9,3.09-6.9,6.9s3.09,6.9,6.9,6.9,6.9-3.09,6.9-6.9-3.09-6.9-6.9-6.9Z"/>
        <path class="cls-2" d="M95.55,59.53c-.07-.37-.22-.72-.42-1.04-.35-.55-8.79-13.37-23.68-13.04-9.44.21-18.89.12-23.53.05v-7.83c.03-.17.04-.35.04-.53,0-1.63-1.34-2.96-2.96-3.01h-4.56c-3.87,0-10.69,2.08-18.04,5.97v-7.92c0-1.66-1.34-3.01-3.01-3.01H3.17c-1.66,0-3.01,1.34-3.01,3.01v13.23c0,1.66,1.35,3.01,3.01,3.01h4.84v1.64c-.74.66-1.51,1.27-2.23,1.97-.58.57-.91,1.34-.91,2.16v8.14c0,1.66,1.34,3.01,3.01,3.01h4.89c-.7-1.59-1.11-3.35-1.11-5.2,0-7.12,5.79-12.91,12.91-12.91s12.91,5.79,12.91,12.91c0,1.85-.41,3.61-1.12,5.2h22.46c-.7-1.59-1.11-3.35-1.11-5.2,0-7.12,5.79-12.91,12.91-12.91s12.91,5.79,12.91,12.91c0,1.85-.41,3.61-1.11,5.2h10.63c.9,0,1.76-.41,2.33-1.1.57-.7.8-1.61.63-2.5l-.44-2.21Z"/>
      </g>
    </g>
  </g>
</svg>