<?xml version="1.0" encoding="UTF-8"?>
<svg id="Layer_2" data-name="Layer 2" xmlns="http://www.w3.org/2000/svg" viewBox="0 0 96.21 96.2">
  <defs>
    <style>
      .cls-1 {
        fill: rgba(0, 112, 242, 0);
        opacity: 0;
      }

      .cls-2 {
        fill: #0070f2;
      }
    </style>
  </defs>
  <g id="Icons_16px" data-name="Icons 16px">
    <g id="football-2">
      <path class="cls-1" d="M0,0h96.21v96.2H0V0Z"/>
      <g>
        <path class="cls-2" d="M92.34,8.48c-.76-2.16-2.46-3.86-4.62-4.62-.75-.26-7.6-2.57-17.75-2.57-12.52,0-31.01,3.58-48.06,20.62C-8.21,52.04,3.36,86.28,3.87,87.72c.76,2.16,2.46,3.86,4.62,4.62.75.26,7.6,2.57,17.75,2.57,12.52,0,31.01-3.58,48.06-20.62,30.12-30.13,18.56-64.37,18.05-65.81ZM85.22,10.98s2.16,6.22,2.12,15.5l-17.63-17.63c.08,0,.18,0,.26,0,9.15,0,15.25,2.14,15.25,2.14ZM8.85,70.26l17.09,17.09c-8.98-.05-14.95-2.13-14.95-2.13,0,0-2.09-5.97-2.14-14.95ZM68.96,68.95c-8.92,8.92-18.22,13.67-26.72,16.11l-31.1-31.1c2.44-8.49,7.21-17.8,16.12-26.71s17.91-13.5,26.3-15.98l31.41,31.41c-2.48,8.37-7.24,17.51-16,26.27Z"/>
        <path class="cls-2" d="M63.08,39.93l2.14-2.14c1.88-1.88,1.88-4.92,0-6.8s-4.92-1.88-6.8,0l-2.14,2.14-3.19-3.19c-1.88-1.88-4.92-1.88-6.8,0s-1.88,4.92,0,6.8l3.19,3.19-1.98,1.99-3.19-3.19c-1.88-1.88-4.93-1.88-6.8,0-1.88,1.88-1.88,4.93,0,6.8l3.19,3.19-1.98,1.98-3.19-3.19c-1.88-1.88-4.92-1.88-6.8,0-1.88,1.88-1.88,4.92,0,6.8l3.19,3.19-1.76,1.76c-1.88,1.88-1.88,4.92,0,6.8.94.94,2.17,1.41,3.4,1.41s2.46-.47,3.4-1.41l1.76-1.76,3.19,3.19c.94.94,2.17,1.41,3.4,1.41s2.46-.47,3.4-1.41c1.88-1.88,1.88-4.93,0-6.8l-3.19-3.19,1.98-1.98,3.19,3.19c.94.94,2.17,1.41,3.4,1.41s2.46-.47,3.4-1.41c1.88-1.88,1.88-4.92,0-6.8l-3.19-3.19,1.99-1.98,3.19,3.19c.94.94,2.17,1.41,3.4,1.41s2.46-.47,3.4-1.41c1.88-1.88,1.88-4.92,0-6.8l-3.19-3.19Z"/>
      </g>
    </g>
  </g>
</svg>