<?xml version="1.0" encoding="UTF-8"?>
<svg id="Layer_2" data-name="Layer 2" xmlns="http://www.w3.org/2000/svg" viewBox="0 0 96.21 96.2">
  <defs>
    <style>
      .cls-1 {
        fill: rgba(0, 112, 242, 0);
        opacity: 0;
      }

      .cls-2 {
        fill: #0070f2;
      }
    </style>
  </defs>
  <g id="Icons_16px" data-name="Icons 16px">
    <g id="ticket-2">
      <path class="cls-1" d="M0,0h96.21v96.2H0V0Z"/>
      <g>
        <path class="cls-2" d="M47.97,3.42c0-1.66-1.34-3.01-3-3.01h-12.58c-1.54.04-2.99,1.3-3.01,2.95-.04,2.79-2.34,5.06-5.13,5.06h0c-2.79,0-5.09-2.28-5.12-5.07-.02-1.64-1.36-2.97-3-2.97H3.54c-.96,0-1.56.3-2.13.86s-.88,1.33-.88,2.12l-.07,66.05c0,1.66,1.34,3.01,3,3.01h.56L47.96,9.82V3.42Z"/>
        <path class="cls-2" d="M94.47,36.29l-10.3-7.22c-1.35-.95-3.2-.63-4.16.7-1.64,2.27-4.83,2.81-7.11,1.21-2.28-1.6-2.86-4.78-1.29-7.09.92-1.36.59-3.21-.76-4.15l-10.3-7.22c-1.36-.95-3.24-.63-4.19.73l-37.92,54.08c-.46.65-.64,1.46-.5,2.25.14.79.58,1.49,1.24,1.94l10.3,7.22c1.35.94,3.2.63,4.16-.7,1.64-2.27,4.83-2.81,7.11-1.21s2.86,4.78,1.29,7.09c-.92,1.36-.59,3.21.76,4.15l10.3,7.22c.51.36,1.11.54,1.73.54.17,0,.35-.01.52-.04.79-.14,1.49-.58,1.94-1.24l37.92-54.08c.46-.65.64-1.46.5-2.25-.14-.78-.58-1.48-1.24-1.94Z"/>
      </g>
    </g>
  </g>
</svg>