<?xml version="1.0" encoding="UTF-8"?>
<svg id="Layer_2" data-name="Layer 2" xmlns="http://www.w3.org/2000/svg" viewBox="0 0 96.21 96.21">
  <defs>
    <style>
      .cls-1 {
        fill: rgba(0, 112, 242, 0);
        opacity: 0;
      }

      .cls-2 {
        fill: #0070f2;
      }
    </style>
  </defs>
  <g id="Icons_16px" data-name="Icons 16px">
    <g id="golf">
      <path class="cls-1" d="M0,0h96.21v96.2H0V0Z"/>
      <path class="cls-2" d="M77.36,62.99l-.45-58.22c-.02-2.66-2.2-4.78-4.85-4.78-.4,0-.76.14-1.14.24-.25.03-.51,0-.75.1l-29.14,11.47c-1.15.45-1.9,1.56-1.9,2.8s.75,2.35,1.9,2.8l26.43,10.41.26,32.94c-5.99-1.04-12.62-1.63-19.61-1.63C21.57,59.13.06,67.44.06,77.67s21.51,18.54,48.04,18.54,48.04-8.3,48.04-18.54c0-5.98-7.38-11.29-18.79-14.68ZM68.3,82.82c-9.72,0-17.61-3.04-17.61-6.79s7.61-6.67,17.09-6.78l.03,4.15c.02,2.65,2.17,4.77,4.81,4.77h.04c2.66-.02,4.8-2.19,4.78-4.84l-.02-3.09c5.07,1.19,8.49,3.33,8.49,5.79,0,3.75-7.89,6.79-17.61,6.79Z"/>
    </g>
  </g>
</svg>