<?xml version="1.0" encoding="UTF-8"?>
<svg id="Layer_2" data-name="Layer 2" xmlns="http://www.w3.org/2000/svg" viewBox="0 0 96.21 96.2">
  <defs>
    <style>
      .cls-1 {
        fill: rgba(0, 112, 242, 0);
        opacity: 0;
      }

      .cls-2 {
        fill: #0070f2;
      }
    </style>
  </defs>
  <g id="Icons_16px" data-name="Icons 16px">
    <g id="equestrian-2">
      <path class="cls-1" d="M0,0h96.21v96.2H0V0Z"/>
      <path class="cls-2" d="M78.72,28.81s3.44,13.06,6.19,17.18c2.75,4.12,3.44,6.87,3.44,6.87.68,10.34-8.53,8.76-11.3,7.8-2.55-.32-3.49-1.59-3.48-2.97l-.35-2.77c-.65-2.99-4.12-2.06-4.12-2.06,0,0-3.4,1.12-8.28-1.64-4.88-2.76-6.48-6.57-6.48-6.57-1.81-1.69-2.99.73-2.99.73-1.26,3.24-2.83,8.75-1.49,13.67,1.68,6.14,10.16,19.09,10.33,30.73,0,0,0,3.01-2.83,4.42-2.83,1.41-6.07-.87-6.07-.87l-38.85-21.76c-6.15-3.53-4.37-9.07-4.37-9.07,2.47-13.58,12.12-45.2,48.66-49.5,0,0,5.87-7.82,11.42-10.68,0,0,1.59-1.07,2.58-.72s.71,3.61.71,3.61c0,2.98-.43,7.34-2.33,11.92,0,0,6.41,3.91,9.62,11.68Z"/>
    </g>
  </g>
</svg>