<?xml version="1.0" encoding="UTF-8"?>
<svg id="Layer_2" data-name="Layer 2" xmlns="http://www.w3.org/2000/svg" viewBox="0 0 96.21 96.2">
  <defs>
    <style>
      .cls-1 {
        fill: rgba(0, 112, 242, 0);
        opacity: 0;
      }

      .cls-2 {
        fill: #0070f2;
      }
    </style>
  </defs>
  <g id="Icons_16px" data-name="Icons 16px">
    <g id="ticket">
      <path class="cls-1" d="M0,0h96.21v96.2H0V0Z"/>
      <g>
        <path class="cls-2" d="M94.3,33.61l-9.89-9.9c-.91-.91-2.15-1.42-3.45-1.41-1.29.01-2.53.54-3.42,1.48-.05.05-.1.11-.16.17-1.41,1.29-3.61,1.25-4.97-.11-1.37-1.37-1.4-3.56-.11-4.98.06-.06.13-.12.18-.17.92-.9,1.45-2.13,1.46-3.41,0-1.29-.5-2.53-1.41-3.44L62.57,1.88c-1.8-1.8-5-1.8-6.8,0L1.91,55.73c-.9.9-1.41,2.13-1.41,3.4s.51,2.5,1.41,3.4l9.96,9.96c1.86,1.86,4.87,1.88,6.75.05,1.41-1.36,3.67-1.35,5.05.03h0c1.38,1.38,1.39,3.65.03,5.05-1.83,1.89-1.81,4.89.05,6.76l9.89,9.89c.9.9,2.13,1.41,3.4,1.41s2.5-.51,3.4-1.41l53.85-53.85c1.88-1.88,1.88-4.93,0-6.8ZM57.32,63.79l-4.58-4.58-6.61,6.61,4.58,4.58-13.66,13.66-3.77-3.77c2.04-4.82,1.1-10.63-2.8-14.53,0,0,0,0,0,0-3.9-3.9-9.7-4.84-14.53-2.8l-3.83-3.83,13.66-13.66,4.38,4.38,6.61-6.61-4.38-4.37,26.77-26.77,3.74,3.75c-2.2,4.87-1.3,10.81,2.7,14.81,3.97,3.97,9.85,4.89,14.77,2.66l3.72,3.71-26.77,26.77Z"/>
        <rect class="cls-2" x="36.78" y="49.48" width="9.35" height="10.1" transform="translate(-26.41 45.27) rotate(-44.99)"/>
      </g>
    </g>
  </g>
</svg>