<?xml version="1.0" encoding="UTF-8"?>
<svg id="Layer_2" data-name="Layer 2" xmlns="http://www.w3.org/2000/svg" viewBox="0 0 96.21 96.2">
  <defs>
    <style>
      .cls-1 {
        fill: rgba(0, 112, 242, 0);
        opacity: 0;
      }

      .cls-2 {
        fill: #0070f2;
      }
    </style>
  </defs>
  <g id="Icons_16px" data-name="Icons 16px">
    <g id="tennis-2">
      <path class="cls-1" d="M0,0h96.21v96.2H0V0Z"/>
      <path class="cls-2" d="M48.11.56C21.85.56.57,21.84.57,48.1s21.28,47.54,47.54,47.54,47.54-21.28,47.54-47.54S74.36.56,48.11.56ZM48.11,10.18c.92,0,1.83.07,2.74.14-.58,1.23-1,2.5-1.26,3.79-.71,3.6-.05,6.38.75,9.14,2.8,9.65,4.52,16.5,5.06,22.94.31,3.73-.51,9.35-1.44,12.43-1.65,5.41-5.75,8.72-12.96,10.24-.44.1-4.42.9-9.68-.68-4.91-1.48-7.72-4.62-8.92-5.96-3.8-4.24-4.94-5.52-6.67-11.26-2.75-9.16-2.15-17.43,1.79-25.17,6.91-9.44,18.03-15.6,30.59-15.6ZM48.11,86.02c-11.9,0-22.52-5.52-29.48-14.12,2.29,1.95,5.5,4.15,9.92,5.48,3.51,1.06,6.66,1.37,9.18,1.37,2.69,0,4.68-.36,5.65-.57,12.96-2.72,17.91-10.61,19.78-16.77,1.23-4.05,2.25-10.86,1.83-16.03-.67-7.99-2.94-16.3-5.41-24.82-.68-2.36-.8-3.34-.55-4.6.32-1.64,1.24-2.84,1.55-3.23.1-.13.19-.19.29-.31,14.64,5.25,25.16,19.23,25.16,35.66,0,20.91-17.01,37.92-37.92,37.92Z"/>
    </g>
  </g>
</svg>