<?xml version="1.0" encoding="UTF-8"?>
<svg id="Layer_2" data-name="Layer 2" xmlns="http://www.w3.org/2000/svg" viewBox="0 0 96.21 96.2">
  <defs>
    <style>
      .cls-1 {
        fill: rgba(0, 112, 242, 0);
        opacity: 0;
      }

      .cls-2 {
        fill: #0070f2;
      }
    </style>
  </defs>
  <g id="Icons_16px" data-name="Icons 16px">
    <g id="tennis">
      <path class="cls-1" d="M0,0h96.21v96.2H0V0Z"/>
      <path class="cls-2" d="M95.76,27.65c0-7.28-2.83-14.12-7.98-19.26-10.62-10.62-27.91-10.62-38.53,0-5.08,5.08-10.06,14.03-12.68,22.79-1,3.35-1.57,6.47-1.8,9.39,0,.02-.01.03-.02.05-.01.14-1.6,14.44-9.68,22.67L1.86,86.5c-1.79,1.79-1.89,4.65-.23,6.55l.92,1.07c.87,1.01,2.13,1.61,3.46,1.66.06,0,.11,0,.17,0,1.27,0,2.5-.51,3.4-1.41l23.25-23.25c5.73-5.61,14.24-8.06,19.05-9.07,1.69,5.79,6.98,10.06,13.3,10.06,7.67,0,13.92-6.24,13.92-13.92,0-1.54-.31-2.99-.77-4.37,3.77-2.15,7.07-4.54,9.44-6.91,5.14-5.14,7.98-11.99,7.98-19.26ZM65.19,62.49c-2.37,0-4.3-1.93-4.3-4.3s1.93-4.3,4.3-4.3,4.3,1.93,4.3,4.3-1.93,4.3-4.3,4.3ZM80.98,40.11c-2.12,2.12-5.27,4.25-8.81,6.11-2.06-1.2-4.42-1.94-6.97-1.94-5.39,0-10.02,3.11-12.33,7.6-2.82,0-5.2-.52-6.62-1.95-2.53-2.53-2.7-8.51-.46-15.99,2.13-7.12,6.36-14.83,10.27-18.74,3.44-3.44,7.95-5.16,12.46-5.16s9.03,1.72,12.46,5.16c3.33,3.33,5.16,7.75,5.16,12.46s-1.84,9.13-5.16,12.46Z"/>
    </g>
  </g>
</svg>