<?xml version="1.0" encoding="UTF-8"?>
<svg id="Layer_2" data-name="Layer 2" xmlns="http://www.w3.org/2000/svg" viewBox="0 0 96.21 96.2">
  <defs>
    <style>
      .cls-1 {
        fill: rgba(0, 112, 242, 0);
        opacity: 0;
      }

      .cls-2 {
        fill: #0070f2;
      }
    </style>
  </defs>
  <g id="Icons_16px" data-name="Icons 16px">
    <g id="hockey">
      <path class="cls-1" d="M0,0h96.21v96.2H0V0Z"/>
      <g>
        <path class="cls-2" d="M93.26,74.2c-.98-.91-2.3-1.37-3.63-1.27l-21.69,1.61-14.31-30.58L70.72,7.45c1.12-2.41.09-5.27-2.32-6.39-2.41-1.13-5.27-.09-6.39,2.32l-13.68,29.24L34.64,3.37c-1.13-2.4-3.99-3.44-6.4-2.32-2.4,1.12-3.44,3.99-2.32,6.39l17.09,36.51-14.31,30.58-22.12-1.62c-1.33-.1-2.65.36-3.63,1.27-.98.91-1.54,2.19-1.54,3.52v5.86c0,2.66,2.16,4.81,4.81,4.81h23.26c1.77,0,3.25-1,4.09-2.42.42-.4.8-.85,1.06-1.42l13.68-29.24,13.68,29.24c.26.56.64,1.02,1.06,1.42.84,1.42,2.32,2.42,4.08,2.42h22.83c2.66,0,4.81-2.15,4.81-4.81v-5.86c0-1.34-.56-2.61-1.54-3.52Z"/>
        <path class="cls-2" d="M48.1,86.59c-4.98,0-9.02,1.34-9.02,3.01v3.01c0,1.66,4.04,3.01,9.02,3.01s9.02-1.35,9.02-3.01v-3.01c0-1.66-4.04-3.01-9.02-3.01Z"/>
      </g>
    </g>
  </g>
</svg>