<?xml version="1.0" encoding="UTF-8"?>
<svg id="Layer_2" data-name="Layer 2" xmlns="http://www.w3.org/2000/svg" viewBox="0 0 96.21 96.24">
  <defs>
    <style>
      .cls-1 {
        fill: rgba(0, 112, 242, 0);
        opacity: 0;
      }

      .cls-2 {
        fill: #0070f2;
      }
    </style>
  </defs>
  <g id="Icons_16px" data-name="Icons 16px">
    <g id="motorspors-3">
      <path class="cls-1" d="M0,.02h96.21v96.2H0V.02Z"/>
      <g>
        <path class="cls-2" d="M48.1,39.91c-3.36,0-6.09,2.73-6.09,6.09v13.17h12.19v-13.17c0-3.36-2.73-6.09-6.09-6.09Z"/>
        <path class="cls-2" d="M87.23,54.67h-6.25c-2.82,0-5.11,2.29-5.11,5.11v2.7h-6.99v-21.2c0-.54-.11-1.07-.34-1.56l-6.13-13.47h7.44v2.7c0,2.82,2.28,5.11,5.11,5.11h6.25c2.82,0,5.11-2.29,5.11-5.11v-15.02c0-2.82-2.29-5.11-5.11-5.11h-6.25c-2.82,0-5.11,2.29-5.11,5.11v2.7h-9.93v-5.48h4.78c1.68,0,3.03-1.36,3.03-3.03V3.03c0-1.67-1.36-3.03-3.03-3.03H31.49c-1.67,0-3.03,1.36-3.03,3.03v5.07c0,1.67,1.36,3.03,3.03,3.03h4.78v5.48h-9.93v-2.7c0-2.82-2.29-5.11-5.11-5.11h-6.25c-2.82,0-5.11,2.29-5.11,5.11v15.02c0,2.82,2.28,5.11,5.11,5.11h6.25c2.82,0,5.11-2.29,5.11-5.11v-2.7h7.44l-6.13,13.47c-.22.49-.34,1.02-.34,1.56v21.2h-6.99v-2.7c0-2.82-2.29-5.11-5.11-5.11h-6.25c-2.82,0-5.11,2.29-5.11,5.11v15.02c0,2.82,2.28,5.11,5.11,5.11h6.25c2.82,0,5.11-2.29,5.11-5.11v-2.7h6.99v5.46h-2.76c-2.6,0-4.71,2.11-4.71,4.71v9.27c0,2.6,2.11,4.71,4.71,4.71h47.08c2.6,0,4.71-2.11,4.71-4.71v-9.27c0-2.6-2.11-4.71-4.71-4.71h-2.76v-5.46h6.99v2.7c0,2.82,2.28,5.11,5.11,5.11h6.25c2.82,0,5.11-2.29,5.11-5.11v-15.02c0-2.82-2.29-5.11-5.11-5.11ZM34.87,77.55v-35.46l8.61-18.92c.22-.49.34-1.02.34-1.56v-10.46h8.56v10.46c0,.54.11,1.07.34,1.56l8.61,18.92v35.46h-26.47Z"/>
      </g>
    </g>
  </g>
</svg>