<?xml version="1.0" encoding="UTF-8"?>
<svg id="Layer_2" data-name="Layer 2" xmlns="http://www.w3.org/2000/svg" viewBox="0 0 96.21 96.21">
  <defs>
    <style>
      .cls-1, .cls-2 {
        fill: #0070f2;
      }

      .cls-2 {
        opacity: 0;
      }
    </style>
  </defs>
  <g id="Icons_16px" data-name="Icons 16px">
    <g id="walk-me">
      <rect class="cls-2" width="96.21" height="96.21"/>
      <path class="cls-1" d="M91.4,30.07h-20.45c-2.65,0-4.81,2.16-4.81,4.81s2.16,4.81,4.81,4.81h9.1l-37.74,37.53c-4.21,4.19-11.07,4.47-15.62.65-2.5-2.1-3.95-5.05-4.08-8.3-.14-3.25,1.06-6.31,3.38-8.61l21.33-21.2c3.75-3.73,5.82-8.7,5.82-13.99s-2.07-10.25-5.82-13.98c-7.71-7.67-20.26-7.67-27.96,0l-6.96,6.93c-1.04-.42-2.17-.66-3.36-.66-4.98,0-9.02,4.04-9.02,9.02s4.04,9.02,9.02,9.02,9.02-4.04,9.02-9.02c0-.13-.03-.25-.04-.38l8.13-8.08c3.97-3.95,10.43-3.95,14.4,0,1.92,1.91,2.98,4.46,2.98,7.16s-1.06,5.25-2.98,7.16l-21.33,21.21c-4.19,4.17-6.45,9.93-6.2,15.83.25,5.9,2.98,11.46,7.51,15.26,3.99,3.36,8.83,5.01,13.66,5.01,5.41,0,10.8-2.09,14.94-6.21l37.49-37.28v8.57c0,2.65,2.16,4.81,4.81,4.81s4.81-2.16,4.81-4.81v-20.45c0-2.65-2.16-4.81-4.81-4.81Z"/>
    </g>
  </g>
</svg>