<?xml version="1.0" encoding="UTF-8"?>
<svg id="Layer_2" data-name="Layer 2" xmlns="http://www.w3.org/2000/svg" viewBox="0 0 96.21 96.21">
  <defs>
    <style>
      .cls-1, .cls-2 {
        fill: #0070f2;
      }

      .cls-2 {
        opacity: 0;
      }
    </style>
  </defs>
  <g id="Icons_16px" data-name="Icons 16px">
    <g id="verified">
      <rect class="cls-2" width="96.21" height="96.21"/>
      <path id="verified-2" data-name="verified" class="cls-1" d="M96.21,48.38c0,4.89-6.13,8.76-7.56,13.17-1.49,4.58,1.15,11.3-1.62,15.1-2.8,3.85-10.02,3.41-13.87,6.21-3.81,2.77-5.61,9.79-10.18,11.28-4.42,1.43-9.98-3.14-14.87-3.14s-10.45,4.58-14.87,3.14c-4.58-1.49-6.37-8.51-10.18-11.28-3.85-2.8-11.07-2.36-13.87-6.2-2.77-3.81-.14-10.53-1.62-15.1-1.43-4.42-7.56-8.28-7.56-13.17s6.13-8.76,7.56-13.17c1.49-4.58-1.15-11.3,1.62-15.1,2.8-3.85,10.02-3.41,13.87-6.2,3.81-2.77,5.61-9.79,10.18-11.28,4.42-1.43,9.98,3.14,14.87,3.14s10.45-4.58,14.87-3.14c4.58,1.49,6.37,8.51,10.18,11.28,3.85,2.8,11.07,2.36,13.87,6.21,2.77,3.81.14,10.53,1.62,15.1,1.43,4.42,7.56,8.28,7.56,13.17ZM43.58,66.41c1.63-.02,3.19-.7,4.31-1.89l22.64-24.05c2.28-2.42,2.16-6.22-.26-8.5-2.42-2.28-6.22-2.16-8.5.26l-18.36,19.51-9.06-9.19c-2.33-2.36-6.14-2.39-8.5-.06-2.36,2.33-2.39,6.14-.06,8.5l13.44,13.63c1.13,1.15,2.67,1.79,4.28,1.79.02,0,.05,0,.07,0Z"/>
    </g>
  </g>
</svg>