<?xml version="1.0" encoding="UTF-8"?>
<svg id="Layer_2" data-name="Layer 2" xmlns="http://www.w3.org/2000/svg" viewBox="0 0 96.21 96.21">
  <defs>
    <style>
      .cls-1 {
        fill: rgba(0, 112, 242, 0);
        opacity: 0;
      }

      .cls-2 {
        fill: #0070f2;
      }
    </style>
  </defs>
  <g id="Icons_1inch" data-name="Icons 1inch">
    <g id="container-multi">
      <path class="cls-1" d="M0,0h96.21v96.2H0V0Z"/>
      <path class="cls-2" d="M74.47,9.66H9.66v47.9c0,1.34-.47,2.48-1.41,3.42-.94.94-2.08,1.41-3.42,1.41s-2.48-.47-3.42-1.41c-.94-.94-1.41-2.08-1.41-3.42V4.83c0-1.34.47-2.48,1.41-3.42.94-.94,2.08-1.41,3.42-1.41h74.07c1.47,0,2.65.47,3.52,1.41.87.94,1.31,2.08,1.31,3.42v23.75c0,1.34-.44,2.48-1.31,3.42-.87.94-2.05,1.41-3.52,1.41-1.35,0-2.42-.47-3.22-1.41-.81-.94-1.21-2.08-1.21-3.42V9.66ZM91.38,42.67c1.34,0,2.48.47,3.42,1.41.94.94,1.41,2.08,1.41,3.42v43.88c0,1.34-.47,2.48-1.41,3.42-.94.94-2.08,1.41-3.42,1.41H20.33c-1.35,0-2.48-.47-3.42-1.41-.94-.94-1.41-2.08-1.41-3.42v-43.88c0-1.34.47-2.48,1.41-3.42.94-.94,2.08-1.41,3.42-1.41h71.05ZM21.54,21.34c0-3.22,1.61-4.83,4.83-4.83,1.34,0,2.48.44,3.42,1.31.94.87,1.41,2.05,1.41,3.52v7.25c0,1.34-.47,2.48-1.41,3.42-.94.94-2.08,1.41-3.42,1.41-1.48,0-2.65-.47-3.52-1.41-.87-.94-1.31-2.08-1.31-3.42v-7.25ZM86.55,86.55v-34.02H25.16v34.02h61.39ZM37.64,82.72c-3.22,0-4.83-1.61-4.83-4.83v-16.3c0-1.34.43-2.48,1.31-3.42.87-.94,2.04-1.41,3.52-1.41,1.34,0,2.48.47,3.42,1.41.94.94,1.41,2.08,1.41,3.42v16.3c0,1.48-.47,2.65-1.41,3.52-.94.87-2.08,1.31-3.42,1.31ZM38.44,21.34c0-3.22,1.61-4.83,4.83-4.83,1.34,0,2.45.44,3.32,1.31.87.87,1.31,2.05,1.31,3.52v6.84c0,1.48-.44,2.65-1.31,3.52-.87.87-1.98,1.31-3.32,1.31-3.22,0-4.83-1.61-4.83-4.83v-6.84ZM54.55,82.52c-1.35,0-2.48-.47-3.42-1.41-.94-.94-1.41-2.08-1.41-3.42v-16.3c0-1.47.47-2.65,1.41-3.52.94-.87,2.08-1.31,3.42-1.31s2.48.44,3.42,1.31c.94.87,1.41,2.05,1.41,3.52v16.3c0,1.34-.47,2.48-1.41,3.42-.94.94-2.08,1.41-3.42,1.41ZM55.15,21.34c0-3.22,1.61-4.83,4.83-4.83,1.34,0,2.48.44,3.42,1.31.94.87,1.41,2.05,1.41,3.52v6.84c0,1.48-.47,2.65-1.41,3.52-.94.87-2.08,1.31-3.42,1.31-3.22,0-4.83-1.61-4.83-4.83v-6.84ZM71.25,82.52c-1.48,0-2.65-.47-3.52-1.41-.87-.94-1.31-2.08-1.31-3.42v-16.3c0-3.22,1.61-4.83,4.83-4.83,1.34,0,2.48.44,3.42,1.31.94.87,1.41,2.05,1.41,3.52v16.3c0,1.34-.47,2.48-1.41,3.42-.94.94-2.08,1.41-3.42,1.41Z"/>
    </g>
  </g>
</svg>