<?xml version="1.0" encoding="UTF-8"?>
<svg id="Layer_2" data-name="Layer 2" xmlns="http://www.w3.org/2000/svg" viewBox="0 0 96.21 96.2">
  <defs>
    <style>
      .cls-1 {
        fill: rgba(0, 112, 242, 0);
        opacity: 0;
      }

      .cls-2 {
        fill: #0070f2;
      }
    </style>
  </defs>
  <g id="Icons_1inch" data-name="Icons 1inch">
    <g id="rentable-object">
      <path class="cls-1" d="M0,0h96.21v96.2H0V0Z"/>
      <path class="cls-2" d="M36.96,27.46c0,1.96-.52,3.63-1.55,5.01,6.44,1.5,11.77,4.81,15.98,9.93,4.2,5.13,6.3,11.14,6.3,18.05v10.02c0,5.18-1.85,9.62-5.53,13.3-3.69,3.69-8.12,5.53-13.3,5.53h-20.21c-5.18,0-9.59-1.81-13.21-5.44-3.63-3.63-5.44-8.03-5.44-13.21v-10.19c0-6.91,2.1-12.92,6.3-18.05,4.2-5.12,9.53-8.43,15.98-9.93-1.16-1.5-1.73-3.17-1.73-5.01v-5.53c0-1.84.92-2.76,2.76-2.76l4.15,1.38c.8.23,1.61.23,2.42,0l4.49-1.38c1.73,0,2.59.92,2.59,2.76v5.53ZM38.86,81c2.99,0,5.49-1.01,7.51-3.02,2.01-2.01,3.02-4.52,3.02-7.51v-10.02c0-5.76-1.99-10.62-5.96-14.6-3.97-3.97-8.84-5.96-14.6-5.96s-10.62,1.99-14.6,5.96-5.96,8.84-5.96,14.6v10.19c0,2.88,1,5.33,3.02,7.34,2.01,2.02,4.46,3.02,7.34,3.02h20.21ZM27.46,55.79c-.46,0-.69.23-.69.69s.23.69.69.69h2.76c1.95,0,3.65.72,5.1,2.16,1.44,1.44,2.16,3.14,2.16,5.1,0,1.61-.49,3.08-1.47,4.4-.98,1.33-2.28,2.22-3.89,2.68v2.42c0,2.19-1.1,3.28-3.28,3.28-.92,0-1.73-.32-2.42-.95-.69-.63-1.04-1.41-1.04-2.33v-2.07h-1.9c-.92,0-1.73-.32-2.42-.95-.69-.63-1.04-1.41-1.04-2.33s.35-1.73,1.04-2.42c.69-.69,1.5-1.04,2.42-1.04h6.74c.35,0,.52-.23.52-.69,0-.35-.17-.52-.52-.52h-2.76c-1.96,0-3.69-.75-5.18-2.25-1.5-1.5-2.25-3.22-2.25-5.18,0-1.61.49-3.08,1.47-4.4.98-1.32,2.27-2.22,3.89-2.68v-2.25c0-.92.35-1.73,1.04-2.42s1.5-1.04,2.42-1.04,1.69.35,2.33,1.04c.63.69.95,1.5.95,2.42v1.9h2.07c.92,0,1.69.35,2.33,1.04.63.69.95,1.5.95,2.42,0,2.19-1.1,3.28-3.28,3.28h-6.74ZM51.47,29.36c0-3.11.57-6.02,1.73-8.72,1.15-2.7,2.73-5.07,4.75-7.08,2.01-2.01,4.37-3.63,7.08-4.84,2.7-1.21,5.61-1.81,8.72-1.81s6.01.6,8.72,1.81c2.7,1.21,5.06,2.82,7.08,4.84,2.01,2.02,3.63,4.38,4.84,7.08,1.21,2.71,1.81,5.61,1.81,8.72s-.6,6.02-1.81,8.72c-1.21,2.71-2.82,5.07-4.84,7.08-2.02,2.02-4.38,3.63-7.08,4.84-2.71,1.21-5.61,1.81-8.72,1.81s-6.02-.6-8.72-1.81c-2.71-1.21-5.07-2.82-7.08-4.84-2.02-2.01-3.6-4.37-4.75-7.08-1.16-2.7-1.73-5.61-1.73-8.72ZM73.76,43.52c3.91,0,7.25-1.38,10.02-4.15,2.76-2.76,4.15-6.1,4.15-10.02s-1.38-7.25-4.15-10.02c-2.76-2.76-6.1-4.15-10.02-4.15s-7.25,1.38-10.02,4.15c-2.76,2.76-4.15,6.1-4.15,10.02s1.38,7.25,4.15,10.02c2.76,2.76,6.1,4.15,10.02,4.15ZM77.9,28.84l2.94,3.28c.8.92,1.21,1.93,1.21,3.02s-.46,2.05-1.38,2.85c-.81.69-1.73,1.04-2.76,1.04-1.16,0-2.19-.46-3.11-1.38l-3.97-4.32c-.69-.69-1.04-1.61-1.04-2.76v-7.77c0-1.15.37-2.13,1.12-2.94.74-.8,1.69-1.21,2.85-1.21s2.13.4,2.94,1.21c.8.81,1.21,1.79,1.21,2.94v6.05Z"/>
    </g>
  </g>
</svg>