<?xml version="1.0" encoding="UTF-8"?>
<svg id="Layer_2" data-name="Layer 2" xmlns="http://www.w3.org/2000/svg" viewBox="0 0 96.21 96.21">
  <defs>
    <style>
      .cls-1 {
        fill: rgba(0, 112, 242, 0);
        opacity: 0;
      }

      .cls-2 {
        fill: #0070f2;
      }
    </style>
  </defs>
  <g id="Icons_1inch" data-name="Icons 1inch">
    <g id="gas">
      <path class="cls-1" d="M0,0h96.21v96.2H0V0Z"/>
      <path class="cls-2" d="M47.41.15c1.83-.39,3.33,0,4.51,1.18.26.26,1.21,1.27,2.84,3.04,1.63,1.76,3.63,4.15,5.98,7.16,2.35,3.01,4.86,6.47,7.55,10.39,2.68,3.92,5.13,8.11,7.35,12.55,2.22,4.44,4.02,9.05,5.39,13.82,1.37,4.77,1.99,9.44,1.86,14.02-.13,4.71-1.15,9.15-3.04,13.33-1.9,4.18-4.41,7.78-7.55,10.78-3.14,3.01-6.76,5.39-10.88,7.16-4.12,1.76-8.53,2.65-13.23,2.65s-9.38-.88-13.63-2.65c-4.25-1.76-7.94-4.22-11.08-7.35-3.14-3.14-5.62-6.76-7.45-10.88-1.83-4.12-2.74-8.53-2.74-13.23,0-5.23,1.5-10.39,4.51-15.49,3-5.1,6.4-10.39,10.19-15.88,3-4.31,5.98-8.75,8.92-13.33,2.94-4.57,5.32-9.34,7.16-14.31.52-1.57,1.63-2.55,3.33-2.94ZM55.06,31.71c0,6.27-.75,11.57-2.25,15.88-1.51,4.31-3.37,6.47-5.59,6.47s-4.09-2.16-5.59-6.47c-1.51-4.31-2.25-9.61-2.25-15.88,0-.13.03-.26.1-.39.06-.13.1-.26.1-.39-.66.92-1.27,1.8-1.86,2.65-.59.85-1.21,1.73-1.86,2.65-3.4,4.97-6.41,9.58-9.02,13.82-2.62,4.25-3.92,8.27-3.92,12.06,0,3.4.65,6.57,1.96,9.51,1.3,2.94,3.1,5.52,5.39,7.74,2.29,2.22,4.96,3.99,8.04,5.29,3.07,1.31,6.37,1.96,9.9,1.96,6.79,0,12.61-2.35,17.45-7.06,4.83-4.71,7.38-10.59,7.65-17.64.13-3.92-.43-7.94-1.67-12.06-1.24-4.12-2.88-8.14-4.9-12.06-2.03-3.92-4.25-7.61-6.67-11.08-2.42-3.46-4.74-6.57-6.96-9.31,1.3,4.31,1.96,9.09,1.96,14.31Z"/>
    </g>
  </g>
</svg>