<?xml version="1.0" encoding="UTF-8"?>
<svg id="Layer_2" data-name="Layer 2" xmlns="http://www.w3.org/2000/svg" viewBox="0 0 96.21 96.2">
  <defs>
    <style>
      .cls-1 {
        fill: rgba(0, 112, 242, 0);
        opacity: 0;
      }

      .cls-2 {
        fill: #0070f2;
      }
    </style>
  </defs>
  <g id="Icons_1inch" data-name="Icons 1inch">
    <g id="container">
      <path class="cls-1" d="M0,0h96.21v96.2H0V0Z"/>
      <path class="cls-2" d="M86.51,84.18H9.7c-2.74,0-5.03-.93-6.9-2.8-1.86-1.86-2.8-4.16-2.8-6.9V21.53c0-2.61.93-4.85,2.8-6.71,1.86-1.86,4.16-2.8,6.9-2.8h76.82c2.73,0,5.03.93,6.9,2.8,1.86,1.86,2.8,4.1,2.8,6.71v52.95c0,2.74-.93,5.03-2.8,6.9-1.86,1.86-4.17,2.8-6.9,2.8ZM9.7,21.53v52.95h76.82V21.53H9.7ZM29.27,65.16c-1.37,0-2.55-.43-3.54-1.31-1-.87-1.49-1.99-1.49-3.36v-24.8c0-1.24.5-2.36,1.49-3.36.99-.99,2.17-1.49,3.54-1.49s2.48.5,3.36,1.49c.87,1,1.31,2.12,1.31,3.36v24.8c0,1.37-.44,2.49-1.31,3.36-.87.87-1.99,1.31-3.36,1.31ZM48.1,65.16c-1.37,0-2.49-.43-3.36-1.31-.87-.87-1.31-1.99-1.31-3.36v-24.8c0-1.24.43-2.36,1.31-3.36.87-.99,1.99-1.49,3.36-1.49s2.48.5,3.36,1.49c.87,1,1.31,2.12,1.31,3.36v24.8c0,1.37-.44,2.49-1.31,3.36-.87.87-1.99,1.31-3.36,1.31ZM67.68,65.16c-1.37,0-2.49-.43-3.36-1.31-.87-.87-1.31-1.99-1.31-3.36v-24.8c0-1.24.43-2.36,1.31-3.36.87-.99,1.99-1.49,3.36-1.49s2.48.5,3.36,1.49c.87,1,1.31,2.12,1.31,3.36v24.8c0,1.37-.44,2.49-1.31,3.36-.87.87-1.99,1.31-3.36,1.31Z"/>
    </g>
  </g>
</svg>