<?xml version="1.0" encoding="UTF-8"?>
<svg id="Layer_2" data-name="Layer 2" xmlns="http://www.w3.org/2000/svg" viewBox="0 0 96.21 96.21">
  <defs>
    <style>
      .cls-1 {
        fill: rgba(0, 112, 242, 0);
        opacity: 0;
      }

      .cls-2 {
        fill: #0070f2;
      }
    </style>
  </defs>
  <g id="Icons_1inch" data-name="Icons 1inch">
    <g id="liquid">
      <path class="cls-1" d="M0,0h96.21v96.2H0V0Z"/>
      <path class="cls-2" d="M48.11,96.21c-5.26,0-10.24-1-14.94-3.01-4.7-2-8.8-4.76-12.31-8.27-3.51-3.51-6.26-7.61-8.27-12.31s-3.01-9.68-3.01-14.94c0-3.38.78-7.02,2.35-10.9,1.57-3.88,3.54-7.8,5.92-11.74,2.38-3.95,5.01-7.8,7.89-11.56s5.64-7.17,8.27-10.24c2.63-3.07,4.92-5.67,6.86-7.8,1.94-2.13,3.23-3.51,3.85-4.13.88-.88,2-1.32,3.38-1.32,1.5,0,2.63.44,3.38,1.32.63.63,1.91,2,3.85,4.13,1.94,2.13,4.23,4.73,6.86,7.8,2.63,3.07,5.39,6.48,8.27,10.24,2.88,3.76,5.51,7.61,7.89,11.56,2.38,3.95,4.35,7.89,5.92,11.84,1.57,3.95,2.35,7.55,2.35,10.8,0,5.26-1,10.24-3.01,14.94-2,4.7-4.76,8.8-8.27,12.31-3.51,3.51-7.61,6.26-12.31,8.27-4.7,2-9.68,3.01-14.94,3.01ZM48.11,11.65c-2.63,2.76-5.61,6.14-8.93,10.15s-6.45,8.17-9.4,12.5c-2.94,4.32-5.45,8.55-7.52,12.68-2.07,4.13-3.1,7.7-3.1,10.71,0,4.01.75,7.77,2.25,11.27,1.5,3.51,3.57,6.58,6.2,9.21,2.63,2.63,5.7,4.7,9.21,6.2s7.27,2.25,11.27,2.25,7.77-.75,11.27-2.25c3.51-1.5,6.58-3.57,9.21-6.2,2.63-2.63,4.7-5.7,6.2-9.21,1.5-3.51,2.25-7.27,2.25-11.27,0-3.01-1.03-6.58-3.1-10.71-2.07-4.13-4.57-8.36-7.52-12.68-2.94-4.32-6.08-8.49-9.4-12.5s-6.29-7.39-8.93-10.15Z"/>
    </g>
  </g>
</svg>