<?xml version="1.0" encoding="UTF-8"?>
<svg id="Layer_2" data-name="Layer 2" xmlns="http://www.w3.org/2000/svg" viewBox="0 0 96.21 96.2">
  <defs>
    <style>
      .cls-1 {
        fill: rgba(0, 112, 242, 0);
        opacity: 0;
      }

      .cls-2 {
        fill: #0070f2;
      }
    </style>
  </defs>
  <g id="Icons_1inch" data-name="Icons 1inch">
    <g id="ship">
      <path class="cls-1" d="M0,0h96.21v96.2H0V0Z"/>
      <path class="cls-2" d="M19.41,14.46c0-4.02,1.37-7.43,4.12-10.24,2.74-2.81,6.13-4.22,10.14-4.22h28.92c4.15,0,7.56,1.41,10.24,4.22,2.67,2.81,4.02,6.23,4.02,10.24v28.52h-.2l8.64,2.41c2.01.54,3.78,1.44,5.32,2.71,1.54,1.27,2.77,2.78,3.72,4.52,2.01,3.62,2.41,7.3,1.21,11.05l-7.23,22.29c-1.07,3.08-2.98,5.56-5.72,7.43-2.75,1.88-5.72,2.81-8.94,2.81H22.42c-3.21,0-6.16-.94-8.84-2.81-2.68-1.87-4.49-4.35-5.42-7.43L.93,63.67c-1.47-3.88-1.21-7.56.8-11.05.94-1.74,2.21-3.28,3.82-4.62,1.61-1.34,3.48-2.28,5.62-2.81l8.23-2.21V14.46ZM49.54,45.99c-.27,0-.5-.07-.7-.2-.2-.13-.44-.2-.7-.2s-.54.07-.8.2c-.27.13-.54.2-.8.2l-32.94,8.64c-1.21.13-2.28,1-3.21,2.61-.54.94-.67,2.08-.4,3.41l7.23,22.29c.94,2.41,2.67,3.62,5.22,3.62h51.22c2.67,0,4.48-1.21,5.42-3.62l7.23-22.29c.53-1.21.46-2.34-.2-3.41-.94-1.61-2.01-2.48-3.21-2.61l-33.34-8.64ZM67.61,14.46c0-1.34-.47-2.48-1.41-3.41-.94-.94-2.15-1.41-3.62-1.41h-28.92c-1.34,0-2.48.47-3.41,1.41-.94.94-1.41,2.08-1.41,3.41v26.11l15.26-4.02c2.81-.8,5.49-.8,8.03,0l15.47,4.02V14.46ZM43.31,65.07c0,1.61-.8,2.41-2.41,2.41h-4.82c-1.61,0-2.41-.8-2.41-2.41v-4.82c0-1.61.8-2.41,2.41-2.41h4.82c1.61,0,2.41.8,2.41,2.41v4.82ZM40.9,28.72c-1.61,0-2.41-.8-2.41-2.41v-4.62c0-1.61.8-2.41,2.41-2.41h14.46c1.61,0,2.41.8,2.41,2.41v4.62c0,1.61-.8,2.41-2.41,2.41h-14.46ZM52.95,60.25c0-1.61.8-2.41,2.41-2.41h4.82c1.61,0,2.41.8,2.41,2.41v4.82c0,1.61-.8,2.41-2.41,2.41h-4.82c-1.61,0-2.41-.8-2.41-2.41v-4.82Z"/>
    </g>
  </g>
</svg>