<?xml version="1.0" encoding="UTF-8"?>
<svg id="Layer_2" data-name="Layer 2" xmlns="http://www.w3.org/2000/svg" viewBox="0 0 96.21 96.2">
  <defs>
    <style>
      .cls-1 {
        fill: rgba(0, 112, 242, 0);
        opacity: 0;
      }

      .cls-2 {
        fill: #0070f2;
      }
    </style>
  </defs>
  <g id="Icons_1inch" data-name="Icons 1inch">
    <g id="ship-2">
      <path class="cls-1" d="M0,0h96.21v96.2H0V0Z"/>
      <path class="cls-2" d="M95.29,38.02c.88,1.51,1.13,2.95.75,4.33l-4.71,13.75v13.56c0,1.38-.44,2.54-1.32,3.48-.88.94-2.01,1.41-3.39,1.41H14.48c-1.01,0-1.98-.28-2.92-.85-.94-.57-1.54-1.35-1.79-2.35L.17,42.36c-.38-1.38-.13-2.83.75-4.33.88-1.25,2.2-1.88,3.96-1.88h4.9v-9.61c0-1.38.44-2.54,1.32-3.48.88-.94,2.01-1.41,3.39-1.41h19.21c1.38,0,2.51.47,3.39,1.41.88.94,1.32,2.1,1.32,3.48v9.61h4.9c1.38,0,2.51.44,3.39,1.32.88.88,1.32,2.01,1.32,3.39h27.69l3.01-3.01c.75-1.13,1.95-1.7,3.58-1.7h9.04c1.76,0,3.08.63,3.96,1.88ZM84.74,45.75h-.38l-2.83,3.2c-1.01,1.01-2.2,1.51-3.58,1.51h-34.66c-1.38,0-2.54-.44-3.48-1.32-.94-.88-1.41-2.01-1.41-3.39H11.47l6.4,19.21h63.85v-9.61c0-.25.12-.75.38-1.51l2.64-8.1ZM28.8,36.14v-4.9h-9.42v4.9h9.42Z"/>
    </g>
  </g>
</svg>