<?xml version="1.0" encoding="UTF-8"?>
<svg id="Layer_2" data-name="Layer 2" xmlns="http://www.w3.org/2000/svg" viewBox="0 0 96.21 96.21">
  <defs>
    <style>
      .cls-1 {
        fill: rgba(0, 112, 242, 0);
        opacity: 0;
      }

      .cls-2 {
        fill: #0070f2;
      }
    </style>
  </defs>
  <g id="Icons_1inch" data-name="Icons 1inch">
    <g id="container-loading">
      <path class="cls-1" d="M0,0h96.21v96.2H0V0Z"/>
      <path class="cls-2" d="M84.99,96.21H11.04c-2.64,0-4.85-.88-6.6-2.64-1.76-1.76-2.64-3.9-2.64-6.41v-50.93c0-2.51.88-4.72,2.64-6.6,1.76-1.89,3.96-2.83,6.6-2.83h73.95c2.51,0,4.72.94,6.6,2.83,1.89,1.89,2.83,4.09,2.83,6.6v50.93c0,2.52-.94,4.65-2.83,6.41-1.89,1.76-4.09,2.64-6.6,2.64ZM11.22,24.52c-1.13,0-2.02-.63-2.64-1.89-.75-1.89-.13-3.14,1.89-3.77l22.26-8.49c1.89-.63,3.14-.12,3.77,1.51.62,1.89.12,3.15-1.51,3.77l-22.64,8.68c-.25,0-.47.03-.66.09-.19.06-.35.09-.47.09ZM11.04,36.22v50.93h73.95v-50.93H11.04ZM29.71,78.1c-1.39,0-2.49-.47-3.3-1.41-.82-.94-1.23-2.04-1.23-3.3v-23.77c0-3.02,1.51-4.53,4.53-4.53s4.72,1.51,4.72,4.53v23.77c0,1.26-.44,2.36-1.32,3.3-.88.94-2.02,1.41-3.4,1.41ZM47.63,19.43c-1.39,0-2.64-.31-3.77-.94-1.13-.63-1.95-1.26-2.45-1.89-1.13-1.13-1.13-2.2,0-3.21.38-.5.91-.75,1.6-.75s1.23.25,1.6.75c.12.13.66.54,1.6,1.23.94.69,2.04.54,3.3-.47.62-.63,1-1.29,1.13-1.98.12-.69.12-1.35,0-1.98-.13-.63-.44-1.38-.94-2.26-.38-.38-.7-.82-.94-1.32-.25-.38-.57-.82-.94-1.32-.38-.5-.75-1.07-1.13-1.7-.75-1.38-.38-2.45,1.13-3.21C49.2-.38,50.27,0,51.03,1.51c.75,1.26,1.32,2.14,1.7,2.64.25.38.5.75.75,1.13,1,1.39,1.66,3.3,1.98,5.75.31,2.45-.79,4.62-3.3,6.51-1.64,1.26-3.15,1.89-4.53,1.89ZM48.01,78.1c-1.39,0-2.49-.47-3.3-1.41-.82-.94-1.23-2.04-1.23-3.3v-23.77c0-3.02,1.51-4.53,4.53-4.53s4.72,1.51,4.72,4.53v23.77c0,1.26-.44,2.36-1.32,3.3-.88.94-2.02,1.41-3.4,1.41ZM84.99,24.9h-.66c-.32,0-.54-.12-.66-.38l-22.07-9.62c-.63-.25-1.07-.78-1.32-1.6-.25-.82-.25-1.54,0-2.17.25-.63.78-1.1,1.6-1.41.81-.31,1.54-.34,2.17-.09l22.07,9.62c.62.25,1.1.79,1.41,1.6.31.82.34,1.54.09,2.17-.63,1.26-1.51,1.89-2.64,1.89ZM66.88,78.1c-1.39,0-2.52-.47-3.4-1.41-.88-.94-1.32-2.04-1.32-3.3v-23.77c0-1.38.44-2.48,1.32-3.3.88-.82,2.01-1.23,3.4-1.23,3.14,0,4.72,1.51,4.72,4.53v23.77c0,1.26-.44,2.36-1.32,3.3-.88.94-2.02,1.41-3.4,1.41Z"/>
    </g>
  </g>
</svg>