<?xml version="1.0" encoding="UTF-8"?>
<svg id="Layer_2" data-name="Layer 2" xmlns="http://www.w3.org/2000/svg" viewBox="0 0 96.21 96.2">
  <defs>
    <style>
      .cls-1 {
        fill: rgba(0, 112, 242, 0);
        opacity: 0;
      }

      .cls-2 {
        fill: #0070f2;
      }
    </style>
  </defs>
  <g id="Icons_1inch" data-name="Icons 1inch">
    <g id="ship-3">
      <path class="cls-1" d="M0,0h96.21v96.2H0V0Z"/>
      <path class="cls-2" d="M7.13,36.15v-9.59c0-1.38.47-2.54,1.41-3.48s2.1-1.41,3.48-1.41h19.19c1.38,0,2.54.47,3.48,1.41s1.41,2.1,1.41,3.48v9.59h2.26c1.38,0,2.54.44,3.48,1.32.94.88,1.41,2.01,1.41,3.39v9.59h47.97c1.88,0,3.32.88,4.33,2.63,1,1.63.88,3.26-.38,4.89l-9.59,14.3c-.88,1.5-2.2,2.26-3.95,2.26H14.47c-1.01,0-1.98-.28-2.92-.85s-1.54-1.35-1.79-2.35L.17,42.36c-.38-1.38-.13-2.82.75-4.33.88-1.25,2.19-1.88,3.95-1.88h2.26ZM79.18,64.94l3.01-4.89h-43.83c-1.38,0-2.51-.44-3.39-1.32-.88-.88-1.32-2-1.32-3.39v-9.59H11.46l6.4,19.19h61.32ZM26.51,36.15v-4.89h-9.59v4.89h9.59Z"/>
    </g>
  </g>
</svg>