<?xml version="1.0" encoding="UTF-8"?>
<svg id="Layer_2" data-name="Layer 2" xmlns="http://www.w3.org/2000/svg" viewBox="0 0 96.21 96.21">
  <defs>
    <style>
      .cls-1 {
        fill: rgba(0, 112, 242, 0);
        opacity: 0;
      }

      .cls-2 {
        fill: #0070f2;
      }
    </style>
  </defs>
  <g id="Icons_1inch" data-name="Icons 1inch">
    <g id="water">
      <path class="cls-1" d="M0,0h96.21v96.2H0V0Z"/>
      <path class="cls-2" d="M48.2,96.21c-5.33,0-10.32-1.01-15-3.02-4.67-2.01-8.76-4.77-12.27-8.28-3.51-3.51-6.27-7.6-8.28-12.27-2.01-4.67-3.02-9.67-3.02-15,0-3.37.78-7.01,2.34-10.91,1.56-3.9,3.54-7.82,5.94-11.78,2.4-3.96,5.03-7.82,7.89-11.59,2.85-3.76,5.58-7.17,8.18-10.22,2.59-3.05,4.9-5.61,6.91-7.69,2.01-2.08,3.27-3.44,3.8-4.09.91-.91,2.08-1.36,3.51-1.36s2.53.46,3.31,1.36c.65.65,1.95,2.01,3.9,4.09,1.95,2.08,4.22,4.64,6.82,7.69,2.59,3.05,5.32,6.46,8.18,10.22,2.85,3.77,5.48,7.63,7.89,11.59,2.4,3.96,4.38,7.92,5.94,11.88,1.56,3.96,2.34,7.57,2.34,10.81,0,5.33-1.01,10.32-3.02,15-2.01,4.67-4.74,8.76-8.18,12.27-3.44,3.51-7.5,6.27-12.17,8.28-4.67,2.01-9.68,3.02-15,3.02Z"/>
    </g>
  </g>
</svg>