<?xml version="1.0" encoding="UTF-8"?>
<svg id="Layer_2" data-name="Layer 2" xmlns="http://www.w3.org/2000/svg" viewBox="0 0 96.21 96.21">
  <defs>
    <style>
      .cls-1 {
        fill: rgba(0, 112, 242, 0);
        opacity: 0;
      }

      .cls-2 {
        fill: #0070f2;
      }
    </style>
  </defs>
  <g id="Icons_1inch" data-name="Icons 1inch">
    <g id="contract">
      <path class="cls-1" d="M0,0h96.21v96.2H0V0Z"/>
      <path class="cls-2" d="M24.39,43c1.44-1.7,2.88-1.7,4.32,0,1.7,1.44,1.7,2.88,0,4.32l-8.64,9.03c-.66.66-1.44.98-2.36.98s-1.57-.26-1.96-.79c-1.57-1.57-1.57-3.14,0-4.71l8.64-8.84ZM19.09,37.7c-2.75,0-4.12-1.37-4.12-4.12v-6.87c0-2.49.79-4.52,2.36-6.09L35.78,2.36c1.57-1.57,3.53-2.36,5.89-2.36h27.29c3.53,0,6.51,1.21,8.93,3.63,2.42,2.42,3.63,5.4,3.63,8.93v21.01c0,1.18-.43,2.16-1.28,2.95-.85.79-1.87,1.18-3.04,1.18-2.75,0-4.12-1.37-4.12-4.12V12.57c0-1.18-.39-2.19-1.18-3.04-.79-.85-1.77-1.28-2.95-1.28h-24.94v12.17c0,2.36-.82,4.35-2.45,5.99-1.64,1.64-3.63,2.45-5.99,2.45h-12.37v4.71c0,2.75-1.37,4.12-4.12,4.12ZM58.36,49.48c1.18-.26,2.49-.16,3.93.29,1.44.46,2.49.82,3.14,1.08.13,0,.59.39,1.37,1.18.79.79,1.63,1.64,2.55,2.55.91.92,1.73,1.8,2.45,2.65.72.85,1.08,1.34,1.08,1.47,1.04,3.8.39,7.26-1.96,10.41-.66,1.05-1.41,1.83-2.26,2.36-.85.52-1.8.98-2.85,1.37l.39.59c1.57,1.57,2.36,3.47,2.36,5.69s-.79,4.12-2.36,5.69c-1.96,2.23-4.32,3.01-7.07,2.36-1.31,3.01-3.67,4.52-7.07,4.52h-1.18c-.66,1.31-1.71,2.39-3.14,3.24-1.44.85-2.88,1.28-4.32,1.28-1.96,0-3.87-.92-5.69-2.75l-13.74-14.33c-3.01-3.14-4.52-6.9-4.52-11.29s1.5-8.15,4.52-11.29l3.53-3.73c1.44-1.44,2.88-1.44,4.32,0,1.57,1.57,1.7,3.08.39,4.52l-3.73,3.73c-1.83,1.83-2.75,4.09-2.75,6.77s.91,4.94,2.75,6.77l13.94,14.53c.79,1.05,1.57,1.05,2.36,0,.26-.91.33-1.44.2-1.57-.79-1.44-.53-2.75.79-3.93.65-.65,1.37-.91,2.16-.79.79.13,1.5.46,2.16.98l.98.98c.79.66,1.5.66,2.16,0,.52-.52.52-1.11,0-1.77-1.44-1.57-1.44-3.07,0-4.52,1.44-1.44,2.88-1.31,4.32.39l1.96,1.57c.65.66,1.31.66,1.96,0,.91-.91.91-1.83,0-2.75l-9.03-9.62c-3.8,1.57-7.33,1.83-10.6.79-2.36-.79-4.03-1.93-5.01-3.44-.98-1.5-1.61-2.39-1.87-2.65-.39-1.31-.2-2.42.59-3.34l6.68-6.87c.39-.65.98-.98,1.77-.98l14.33-2.16ZM58.36,65.19c.65.52,1.31,1.02,1.96,1.47.65.46,1.24.69,1.77.69,1.83,0,3.14-.72,3.93-2.16.65-1.31.91-2.68.79-4.12l-4.12-4.71c-1.05-.52-2.03-.79-2.95-.79l-13.55,1.96-3.93,4.32c.79.66,1.93,1.11,3.44,1.37,1.5.26,3.56-.33,6.18-1.77.39-.13.85-.2,1.37-.2,1.04,0,1.83.26,2.36.79l2.75,3.14ZM57.18,22.78c-1.05,0-1.57.52-1.57,1.57s.52,1.57,1.57,1.57h2.55c3.27,0,5.63,1.37,7.07,4.12,1.18,2.62,1.14,4.94-.1,6.97-1.25,2.03-2.98,3.37-5.2,4.03v2.95c0,2.1-.92,3.14-2.75,3.14-2.1,0-3.14-1.05-3.14-3.14v-2.95h-2.95c-2.1,0-3.14-1.05-3.14-3.14,0-1.83,1.04-2.75,3.14-2.75h7.66c.79,0,1.18-.52,1.18-1.57s-.39-1.57-1.18-1.57h-3.14c-1.83,0-3.5-.59-5.01-1.77-1.51-1.18-2.39-2.68-2.65-4.52-.26-2.22.2-4.19,1.37-5.89,1.18-1.7,2.75-2.75,4.71-3.14v-2.95c0-2.09,1.04-3.14,3.14-3.14,1.83,0,2.75,1.05,2.75,3.14v2.95h3.14c1.96,0,2.95,1.05,2.95,3.14,0,1.96-.98,2.95-2.95,2.95h-7.46ZM80.74,51.84c1.31,1.57,1.18,3.14-.39,4.71-.39.52-1.05.79-1.96.79s-1.71-.33-2.36-.98l-8.64-9.03c-1.57-1.44-1.51-2.88.2-4.32,1.57-1.57,3.07-1.57,4.52,0l8.64,8.84Z"/>
    </g>
  </g>
</svg>