<?xml version="1.0" encoding="UTF-8"?>
<svg id="Layer_2" data-name="Layer 2" xmlns="http://www.w3.org/2000/svg" viewBox="0 0 96.21 96.21">
  <defs>
    <style>
      .cls-1 {
        fill: rgba(0, 112, 242, 0);
        opacity: 0;
      }

      .cls-2 {
        fill: #0070f2;
      }
    </style>
  </defs>
  <g id="Icons_1inch" data-name="Icons 1inch">
    <g id="gas-2">
      <path class="cls-1" d="M0,0h96.21v96.2H0V0Z"/>
      <path class="cls-2" d="M81.33,91.81c-.14,1.2-.67,2.24-1.6,3.1-.94.87-2.07,1.3-3.4,1.3H19.68c-1.34,0-2.47-.47-3.4-1.4-.94-.93-1.4-2.07-1.4-3.4v-5.6c0-1.33.46-2.47,1.4-3.4.93-.93,2.06-1.4,3.4-1.4s2.46.47,3.4,1.4c.93.94,1.4,2.07,1.4,3.4v.8h18.61v-.2c0-1.33.46-2.47,1.4-3.4.93-.93,2.06-1.4,3.4-1.4s2.5.47,3.5,1.4c1,.94,1.5,2.07,1.5,3.4v.2h18.81v-1.4c0-1.33.46-2.47,1.4-3.4.93-.93,2.06-1.4,3.4-1.4s2.46.47,3.4,1.4c.93.94,1.4,2.07,1.4,3.4v6.6ZM20.08,49.58c0-4.27,1.13-8.44,3.4-12.51,2.26-4.07,4.93-8.24,8.01-12.51,2.26-3.33,4.53-6.74,6.81-10.21,2.26-3.47,4.13-7.14,5.6-11.01.66-1.73,1.8-2.8,3.4-3.2,1.73-.4,3.26.07,4.6,1.4.26.27,1.73,1.87,4.4,4.8,2.66,2.94,5.5,6.71,8.51,11.31,3,4.6,5.74,9.71,8.21,15.31,2.46,5.6,3.57,11.21,3.3,16.81-.14,3.87-.97,7.47-2.5,10.81-1.54,3.34-3.57,6.24-6.1,8.71-2.54,2.47-5.47,4.4-8.81,5.8-3.34,1.4-6.94,2.1-10.81,2.1s-7.51-.73-10.91-2.2c-3.4-1.47-6.37-3.43-8.91-5.9-2.54-2.47-4.54-5.4-6-8.81-1.47-3.4-2.2-6.97-2.2-10.71ZM39.5,30.16c-2.54,3.6-4.8,7.07-6.81,10.41-2,3.34-3,6.34-3,9.01,0,5.07,1.8,9.34,5.4,12.81,3.6,3.47,7.94,5.2,13.01,5.2s9.34-1.77,12.81-5.3c3.47-3.53,5.34-7.84,5.6-12.91.13-2.67-.2-5.4-1-8.21-.8-2.8-1.87-5.6-3.2-8.41-1.34-2.8-2.84-5.5-4.5-8.11-1.67-2.6-3.37-5.04-5.1-7.31.53,2.27.8,5.14.8,8.61,0,4.8-.57,8.91-1.7,12.31-1.14,3.4-2.57,5.1-4.3,5.1-1.6,0-2.97-1.53-4.1-4.6-1.14-3.07-1.77-6.87-1.9-11.41-.27.53-.6,1-1,1.4-.4.4-.74.87-1,1.4Z"/>
    </g>
  </g>
</svg>