<?xml version="1.0" encoding="UTF-8"?>
<svg id="Layer_2" data-name="Layer 2" xmlns="http://www.w3.org/2000/svg" viewBox="0 0 96.21 96.2">
  <defs>
    <style>
      .cls-1 {
        fill: rgba(0, 112, 242, 0);
        opacity: 0;
      }

      .cls-2 {
        fill: #0070f2;
      }
    </style>
  </defs>
  <g id="Icons_1inch" data-name="Icons 1inch">
    <g id="water-2">
      <path class="cls-1" d="M0,0h96.21v96.2H0V0Z"/>
      <path class="cls-2" d="M96.01,45.55l-.2,14.53c0,1.31-.46,2.45-1.37,3.44-.92.98-2.03,1.47-3.34,1.47h-11c-1.31,0-2.42-.49-3.34-1.47-.92-.98-1.37-2.13-1.37-3.44v-9.82c0-1.31-.46-2.42-1.37-3.34-.92-.91-2.03-1.37-3.34-1.37h-5.5c-1.57,3.14-3.87,5.69-6.87,7.66-3.01,1.96-6.42,2.95-10.21,2.95s-7.2-.98-10.21-2.95c-3.01-1.96-5.3-4.52-6.87-7.66H4.71c-1.31,0-2.42-.46-3.34-1.37-.92-.91-1.37-2.03-1.37-3.34v-9.23c0-1.31.45-2.42,1.37-3.34.91-.91,2.02-1.37,3.34-1.37h27.29c2.75-4.45,6.54-7.26,11.39-8.44v-6.09h-13.74c-1.44,1.44-3.14,2.16-5.11,2.16s-3.63-.69-5.01-2.06c-1.37-1.37-2.06-3.04-2.06-5.01s.69-3.66,2.06-5.11c1.37-1.44,3.04-2.16,5.01-2.16,2.09,0,3.93.92,5.5,2.75h14.14c.91-1.7,2.22-2.55,3.93-2.55,1.83,0,3.2.85,4.12,2.55h14.33c1.44-1.7,3.2-2.55,5.3-2.55,1.96,0,3.63.72,5.01,2.16,1.37,1.44,2.06,3.14,2.06,5.11s-.69,3.63-2.06,5.01c-1.37,1.37-3.04,2.06-5.01,2.06s-3.73-.79-5.3-2.36h-13.55v6.28c2.36.66,4.48,1.7,6.38,3.14,1.9,1.44,3.5,3.14,4.81,5.11h22.19c2.61,0,4.87.95,6.77,2.85,1.9,1.9,2.85,4.16,2.85,6.77v9.03ZM48.1,47.9c3.01,0,5.53-.98,7.56-2.95,2.02-1.96,3.04-4.45,3.04-7.46s-1.02-5.53-3.04-7.56c-2.03-2.03-4.55-3.04-7.56-3.04s-5.53,1.02-7.56,3.04c-2.03,2.03-3.04,4.55-3.04,7.56s1.01,5.5,3.04,7.46c2.02,1.96,4.55,2.95,7.56,2.95ZM82.66,73.04c1.04-1.44,2.32-2.16,3.83-2.16s2.78.72,3.83,2.16c1.18,2.23,2.45,4.65,3.83,7.26,1.37,2.62,2.06,4.65,2.06,6.09,0,2.62-.95,4.88-2.85,6.77-1.9,1.9-4.16,2.85-6.77,2.85s-4.88-.95-6.77-2.85c-1.9-1.9-2.85-4.15-2.85-6.77,0-1.7.59-3.8,1.77-6.28,1.18-2.49,2.49-4.84,3.93-7.07Z"/>
    </g>
  </g>
</svg>